<?xml version="1.0" encoding="UTF-8" standalone="no"?>
<svg
   xmlns:dc="http://purl.org/dc/elements/1.1/"
   xmlns:cc="http://creativecommons.org/ns#"
   xmlns:rdf="http://www.w3.org/1999/02/22-rdf-syntax-ns#"
   xmlns:svg="http://www.w3.org/2000/svg"
   xmlns="http://www.w3.org/2000/svg"
   xmlns:sodipodi="http://sodipodi.sourceforge.net/DTD/sodipodi-0.dtd"
   xmlns:inkscape="http://www.inkscape.org/namespaces/inkscape"
   inkscape:version="0.92.4 (5da689c313, 2019-01-14)"
   sodipodi:docname="am-snow.svg"
   id="svg8"
   version="1.1"
   viewBox="0 0 210 297"
   height="297mm"
   width="210mm">
  <defs
     id="defs2" />
  <sodipodi:namedview
     inkscape:window-maximized="1"
     inkscape:window-y="31"
     inkscape:window-x="0"
     inkscape:window-height="989"
     inkscape:window-width="1920"
     showgrid="false"
     inkscape:document-rotation="0"
     inkscape:current-layer="layer1"
     inkscape:document-units="mm"
     inkscape:cy="902.85714"
     inkscape:cx="416.42857"
     inkscape:zoom="0.7"
     inkscape:pageshadow="2"
     inkscape:pageopacity="0.0"
     borderopacity="1.0"
     bordercolor="#666666"
     pagecolor="#ffffff"
     id="base" />
  <metadata
     id="metadata5">
    <rdf:RDF>
      <cc:Work
         rdf:about="">
        <dc:format>image/svg+xml</dc:format>
        <dc:type
           rdf:resource="http://purl.org/dc/dcmitype/StillImage" />
        <dc:title />
      </cc:Work>
    </rdf:RDF>
  </metadata>
  <g
     id="layer1"
     inkscape:groupmode="layer"
     inkscape:label="Layer 1">
    <path
       id="path890"
       d="m 5.8999179,159.05676 c -0.687174,-0.87598 -2.51416,-3.12575 -4.059985,-4.99951 -1.54582604,-1.8738 -3.846555,-4.67055 -5.112749,-6.21509 l -2.302175,-2.80822 0.533797,-7.08834 c 0.293582,-3.89859 0.486391,-7.8472 0.428448,-8.77469 -0.103678,-1.66051 -0.173022,-1.55056 -4.520882,7.17344 l -4.4155359,8.85979 -1.580372,0.54293 c -1.919051,0.65926 -10.734408,4.23128 -12.847328,5.20576 -0.837984,0.38651 -1.711955,0.70273 -1.942157,0.70273 -0.461499,0 -0.995336,-1.32537 -0.71593,-1.77746 0.09694,-0.15683 0.297018,-3.74181 0.444637,-7.96665 l 0.268392,-7.6815 2.17403,-2.24847 c 11.32778,-11.71561 23.0177439,-24.5529 23.2992029,-25.58592 0.148165,-0.54381 0.384866,-3.57695 0.525992,-6.740309 l 0.256587,-5.75156 -2.357653,1.61329 c -1.296703,0.8873 -3.641335,2.50362 -5.2102919,3.59179 -1.568953,1.088189 -3.527183,2.420319 -4.35162,2.960299 -0.824437,0.53997 -1.583295,1.08305 -1.686349,1.20681 -0.103054,0.12379 -1.452134,1.06821 -2.997955,2.09876 -1.54582,1.03055 -2.899929,1.99224 -3.009133,2.13709 -0.109201,0.14484 -1.373966,1.02376 -2.810582,1.95312 -1.436616,0.92938 -2.780666,1.82776 -2.986775,1.99641 -0.20611,0.16866 -0.983505,0.76729 -1.727546,1.33032 l -1.3528,1.02369 -3.706246,-0.37592 c -2.038437,-0.20676 -5.62959,-0.54413 -7.980359,-0.74972 -2.350755,-0.20558 -4.340537,-0.44021 -4.421723,-0.5214 -0.08116,-0.0812 1.547044,-3.18295 3.618309,-6.89281 2.071251,-3.70985 3.765922,-6.944679 3.765922,-7.188489 0,-0.24383 1.306914,-1.02888 2.904267,-1.7446 1.597346,-0.71571 3.157221,-1.46697 3.466384,-1.6695 0.309164,-0.20251 1.152339,-0.62397 1.873721,-0.93658 1.785611,-0.77377 2.706519,-1.22009 3.372698,-1.63462 1.085834,-0.67565 10.683784,-5.28446 10.997108,-5.28067 0.174294,0.003 0.799213,-0.3396 1.388716,-0.75936 0.589503,-0.41977 1.627345,-0.95147 2.306315,-1.18156 0.678973,-0.23008 1.687099,-0.73337 2.240281,-1.11839 0.553182,-0.38504 1.725255,-0.9539 2.6046039,-1.26416 0.879352,-0.31025 1.860149,-0.78484 2.179537,-1.05463 0.319403,-0.26979 1.170944,-0.71471 1.892323,-0.98872 2.159533,-0.82024 2.673104,-1.45717 2.547445,-3.15941 -0.104952,-1.42124 -0.257565,-1.60039 -2.547445,-2.9897 -2.908489,-1.76462 -5.6971489,-3.38796 -10.4928339,-6.1081 -1.958039,-1.11061 -3.813022,-2.1724 -4.122187,-2.3595 -2.197893,-1.33023 -13.999287,-8.10541 -20.236194,-11.61762 -4.526292,-2.54892 -6.179222,-3.494858 -7.307506,-4.181989 -1.471495,-0.896129 -1.787838,-0.868991 -3.140614,0.269292 -1.087989,0.91549 -1.129318,1.056917 -0.957995,3.279017 0.416295,5.3999 0.920589,11.02291 1.619816,18.06153 0.409511,4.12218 1.03452,10.64156 1.388921,14.48749 l 0.644357,6.99261 -1.121272,1.43913 c -0.616696,0.79153 -2.771484,3.88436 -4.788418,6.872939 -2.016934,2.98858 -3.888847,5.48627 -4.159796,5.5504 -0.52289,0.12379 -0.582774,0.0406 -3.323565,-4.61354 -0.971011,-1.64888 -2.421941,-4.009759 -3.224293,-5.246419 -0.802351,-1.23665 -1.61017,-2.58573 -1.795132,-2.99795 -0.212213,-0.47292 -0.08286,-3.10036 0.35069,-7.12015 0.377869,-3.50385 1.024861,-10.58653 1.437786,-15.73926 0.41291,-5.15273 0.828384,-9.91666 0.923266,-10.58653 0.185514,-1.30987 -0.156196,-1.55759 -0.904613,-0.6558 -0.256587,0.30917 -0.600153,0.56213 -0.763487,0.56213 -0.163334,0 -1.533928,0.75499 -3.045761,1.67776 -1.511819,0.92277 -3.677442,2.16927 -4.812467,2.76999 l -2.063688,1.09223 -1.223633,4.25646 c -0.67301,2.34105 -1.63633,5.68985 -2.140723,7.44179 -1.418169,4.92573 -2.99786,10.61787 -4.315978,15.55189 -0.66073,2.47331 -1.440915,5.38227 -1.733747,6.46433 -0.391793,1.447849 -0.710586,1.967409 -1.207161,1.967409 -0.371127,0 -1.420378,0.47741 -2.33169,1.06092 -6.293905,4.02997 -8.234455,5.28389 -10.070889,6.50748 -1.628045,1.08474 -2.178415,1.28704 -2.537895,0.93287 -0.26041,-0.25656 -0.62582,-2.39642 -0.84443,-4.9452 -0.21198,-2.4711 -0.58347,-6.110849 -0.82557,-8.088329 l -0.44015,-3.59542 5.302048,-8.00146 c 2.916136,-4.40082 5.242558,-8.061 5.169828,-8.13373 -0.07266,-0.0727 -0.784463,0.24482 -1.581631,0.70566 -0.797154,0.46084 -2.292557,1.30764 -3.323098,1.88177 -7.155287,3.98631 -8.787557,4.94563 -9.500577,5.58376 -0.39788,0.35609 -1.16253,0.32144 -3.56007,-0.16135 -1.67934,-0.33817 -4.06517,-0.7735 -5.30183,-0.96742 -4.8938,-0.76736 -10.4728,-1.90895 -10.76702,-2.20317 -0.27314,-0.27313 0.7322,-3.27938 4.03135,-12.0549 0.50367,-1.3397 1.17459,-3.31032 1.49093,-4.37913 0.52601,-1.77723 0.74268,-2.02627 2.53521,-2.91399 1.07803,-0.53388 3.00475,-1.5987 4.28161,-2.36626 1.27686,-0.76757 3.55344,-2.10274 5.05906,-2.96706 1.5056,-0.86431 3.07474,-1.84105 3.48695,-2.17051 0.70429,-0.56288 0.62518,-0.58743 -1.3116,-0.40693 -1.13359,0.10566 -4.84357,0.36855 -8.24437,0.58422 -3.40081,0.21567 -6.85783,0.47734 -7.68226,0.58151 -1.30154,0.16444 -1.7474,0.003 -3.38518,-1.22429 -1.03741,-0.77753 -3.63887,-2.67843 -5.78103,-4.224259 -5.18611,-3.742354 -6.29018,-4.728463 -5.82357,-5.201314 0.32204,-0.326357 6.89631,-3.785807 12.6228,-6.642286 0.96537,-0.481533 1.91831,-1.166964 2.11766,-1.523192 0.33834,-0.604586 0.60794,-0.581103 4.05333,0.353041 4.04439,1.096543 11.03118,2.925526 14.55846,3.811061 1.23666,0.310465 5.670507,1.425675 9.853007,2.478241 l 7.604544,1.913752 3.637784,-2.052527 c 2.000787,-1.128893 4.312323,-2.42779 5.13677,-2.886435 3.122896,-1.737288 3.109667,-1.703607 1.073698,-2.731684 -1.002752,-0.506347 -3.762494,-1.8039 -6.132752,-2.883435 -2.370259,-1.079547 -6.08022,-2.797771 -8.24437,-3.818284 -6.539416,-3.083663 -7.560411,-3.555196 -10.727381,-4.954287 -1.67482,-0.739905 -3.22643,-1.345269 -3.44805,-1.345269 -0.38963,0 -1.325,-1.569734 -4.4661,-7.494877 -2.03795,-3.84426 -3.10084,-5.719175 -3.56739,-6.292856 -0.6771,-0.832563 0.14508,-1.114942 4.03383,-1.385409 2.06108,-0.14335 5.85537,-0.4808526 8.43173,-0.7499886 l 4.684306,-0.489351 1.873727,1.2562366 c 1.523517,1.021448 12.938443,9.14122 17.612985,12.528634 1.707262,1.237188 6.158955,4.364332 10.755258,7.555185 l 4.129061,2.866478 1.739073,-0.722667 1.739073,-0.722682 -0.09858,-26.7285126 -0.09858,-26.7285414 -1.482401,-0.668464 -1.482401,-0.668463 -2.541212,1.611643 c -1.397675,0.886398 -2.82311,1.794977 -3.167639,2.019044 -1.080935,0.703009 -20.160585,13.5643594 -24.481449,16.5026474 l -4.122192,2.80316803 -8.128569,0.01275 c -5.05063,0.0085 -8.21662,-0.129313 -8.36111,-0.36314 -0.12789,-0.206915 0.85776,-2.77860703 2.19031,-5.71484203 1.33254,-2.936248 2.76864,-6.1437284 3.1913,-7.1277564 0.72249,-1.682022 0.9658,-1.881969 4.06456,-3.340321 5.153976,-2.425566 10.952539,-5.150395 13.414166,-6.303507 1.236649,-0.579304 4.751833,-2.248947 7.811517,-3.71033 3.059684,-1.461382 5.681954,-2.65707 5.827272,-2.65707 0.145318,0 0.46652,-0.202298 0.713759,-0.449537 0.349571,-0.349571 -0.852661,-1.088159 -5.405708,-3.320959 -5.312342,-2.605161 -5.98123,-2.842429 -7.213687,-2.558903 -0.747128,0.171889 -3.634979,0.831373 -6.417468,1.465518 -7.912351,1.803305 -14.407351,3.313608 -19.299331,4.487739 -2.47331,0.593609 -5.55772,1.325568 -6.85426,1.626558 l -2.35732,0.547266 -2.32698,-1.223548 c -1.27983,-0.672939 -4.51922,-2.351335 -7.19865,-3.729776 -4.54587,-2.338617 -6.18412,-3.387046 -5.78624,-3.70295 0.0908,-0.07209 2.10438,-1.592353 4.47464,-3.378378 2.37025,-1.786025 5.57432,-4.2521 7.12014,-5.480166 1.54581,-1.228051 3.00448,-2.168781 3.24146,-2.090499 0.23699,0.07832 3.52537,0.323878 7.30751,0.545793 3.78215,0.2219 7.97277,0.479791 9.31247,0.573072 2.24322,0.156196 2.37657,0.124356 1.68636,-0.401905 -0.41222,-0.314347 -3.97606,-2.178739 -7.91963,-4.143112 -7.02011,-3.49687 -8.00724,-4.219198 -8.00692,-5.859112 6e-5,-0.247933 -0.86235,-2.643053 -1.91646,-5.322472 -1.05411,-2.679421 -2.40323,-6.107021 -2.99804,-7.616888 -0.59483,-1.509867 -1.0815,-2.973464 -1.0815,-3.252442 0,-0.570162 2.19085,-1.085585 7.12611,-1.676516 1.75522,-0.21016 5.25565,-0.776632 7.77872,-1.258822 3.45854,-0.660971 4.75799,-0.776328 5.28055,-0.46879 0.68569,0.40354 1.86315,1.173492 6.2341,4.076568 6.876266,4.56704 8.447274,5.49232 8.043131,4.737195 -0.228317,-0.426608 -2.679477,-4.161734 -5.447037,-8.300277 -2.767564,-4.138545 -5.031934,-7.843297 -5.031934,-8.232788 0,-0.389489 0.32423,-2.767437 0.72052,-5.284332 0.39628,-2.516895 0.8943,-6.16189 1.10672,-8.099996 0.21241,-1.938102 0.52185,-3.659463 0.68764,-3.825253 0.16577,-0.16578 0.93323,0.0709 1.705425,0.52587 2.742278,1.615867 12.090655,7.53249 12.685808,8.028887 0.332603,0.277421 0.978277,1.805979 1.434854,3.396802 0.456562,1.590824 1.222612,4.157166 1.702318,5.702986 0.47972,1.54582 1.494015,4.918518 2.254004,7.494886 1.43872,4.877342 2.500634,8.349194 4.29823,14.05291 0.584616,1.854987 1.159472,3.794295 1.277441,4.309565 0.158971,0.69434 1.634135,1.888131 5.698766,4.61177 3.016357,2.021211 5.516963,3.623237 5.556904,3.560068 0.131721,-0.208233 -0.542436,-9.316145 -1.464697,-19.788916 -1.399091,-15.887369 -1.372491,-14.857636 -0.414341,-16.032486 0.456804,-0.560107 2.486626,-3.379268 4.510755,-6.264798 2.024115,-2.885531 3.759902,-5.330737 3.857305,-5.433793 0.25459,-0.269365 0.914726,0.70965 4.169272,6.183281 1.593145,2.679422 3.274785,5.461897 3.736957,6.18328 0.798655,1.246561 0.82888,1.562493 0.609486,6.370653 -0.126906,2.782476 -0.723107,11.665576 -1.324761,19.740218 -0.601639,8.074651 -1.093894,15.1934 -1.093894,15.819443 0,0.892149 0.298554,1.341134 1.380806,2.076549 l 1.380805,0.938279 2.085571,-1.175647 c 1.147082,-0.646597 3.434667,-1.966188 5.083546,-2.932398 2.947622,-1.727275 16.731381,-9.687438 19.299323,-11.145436 3.737418,-2.12197 6.053507,-3.474425 8.376359,-4.891263 1.412306,-0.861441 2.628966,-1.566255 2.703697,-1.566255 0.07473,0 1.8204819,-1.01181 3.8794449,-2.248466 2.058972,-1.236656 4.00421,-2.248466 4.322763,-2.248466 0.627077,0 0.696719,-0.550765 0.341384,-2.700066 -0.249746,-1.510643 -0.09348,-1.411081 -7.8192039,-4.982716 -1.648874,-0.762282 -4.009763,-1.86056 -5.246419,-2.440616 -1.236656,-0.580059 -3.42891,-1.587708 -4.871676,-2.239224 -1.442766,-0.651515 -3.297749,-1.497887 -4.122186,-1.880823 -0.824439,-0.382936 -2.595105,-1.189064 -3.934815,-1.791391 -1.339712,-0.602329 -4.598607,-2.075708 -7.241993,-3.274178 l -4.806157,-2.178707 -1.798815,-3.777316 c -0.989353,-2.077527 -2.669053,-5.596503 -3.732665,-7.81995 -1.063613,-2.223446 -1.850258,-4.177876 -1.748096,-4.343176 0.283739,-0.4591 15.903502,-0.86286 16.440709,-0.42499 1.508926,1.22992 3.559946,2.71557 10.944012,7.927233 4.534407,3.20038 10.141518,7.12121 12.4602479,8.712958 l 4.215877,2.894083 v -6.804052 -6.804048 l -1.030556,-1.002227 c -0.566797,-0.551223 -6.3024299,-6.411887 -12.7458429,-13.023697 l -11.715303,-12.02148 -0.213983,-9.04919 c -0.2078,-8.78768 -0.192918,-9.04919 0.514963,-9.04919 0.636829,0 2.871312,0.95678 12.968153,5.55281 l 2.205092,1.00375 4.2809769,8.61035 c 2.354538,4.73569 4.363781,8.69316 4.464979,8.79436 0.10127,0.1012 0.158519,-3.82227 0.127331,-8.71884 l -0.05665,-8.90284 5.62918096,-6.63618 c 3.09605604,-3.6499 5.95376704,-7.04368 6.35048804,-7.54172 l 0.72128,-0.90555 0.94961,1.09292 c 0.522267,0.6011 3.4122571,3.99817 6.4221841,7.54903 l 5.472589,6.45611 0.100561,8.67801 0.100561,8.678 4.265017,-8.59693 4.265017,-8.59693 2.855119,-1.25782 c 1.570315,-0.6918 4.87313,-2.15798 7.339573,-3.25818 6.098448,-2.7203 5.982505,-2.74213 5.650483,1.0641 -0.147032,1.68544 -0.324261,5.83773 -0.393861,9.22731 l -0.126622,6.16286 -7.498842,7.5425 c -4.124373,4.14837 -9.78181,9.90338 -12.572102,12.78892 l -5.073247,5.246414 -0.01133,6.65171 c -0.0057,3.658442 0.07662,6.651711 0.183716,6.651711 0.185514,0 1.900708,-1.101669 3.927372,-2.52256 15.802414,-11.079064 22.75331,-16.031395 23.091834,-16.452355 0.347092,-0.43162 1.826306,-0.47832 8.540317,-0.26965 4.466295,0.1388 8.203153,0.38609 8.304153,0.5495 0.100987,0.16341 -1.138722,2.96109 -2.75494,6.217075 -1.616204,3.255979 -3.166236,6.510188 -3.444494,7.231571 -0.782961,2.029802 -1.76029,2.876675 -4.76186,4.12623 -4.116173,1.71357 -32.774712,14.940049 -33.753003,15.577673 -0.687839,0.448326 -0.843171,0.893151 -0.843171,2.414647 0,1.419703 0.136112,1.865083 0.57014,1.865083 0.313595,0 1.198917,0.397431 1.967418,0.883182 1.323953,0.836853 9.794401,5.819206 15.075413,8.86745 1.339717,0.773288 4.543784,2.630571 7.120151,4.127291 2.576366,1.49672 6.454958,3.733813 8.619108,4.971311 2.16415,1.237513 4.440731,2.541099 5.059055,2.896888 0.618325,0.355775 2.136035,1.225446 3.372699,1.932576 1.236649,0.707144 2.684972,1.572495 3.218485,1.923001 0.93073,0.611483 1.021788,0.602121 2.248466,-0.231093 l 1.278454,-0.868382 -0.11317,-5.412025 c -0.06231,-2.976614 -0.448197,-9.627909 -0.857581,-14.78064 -0.409398,-5.152734 -0.887319,-12.151082 -1.062055,-15.551887 -0.307151,-5.978348 -0.291146,-6.220212 0.482851,-7.297541 0.910292,-1.267018 4.470635,-7.183691 6.270755,-10.420867 0.66262,-1.191585 1.38923,-2.105174 1.6147,-2.030199 0.22549,0.07498 1.28859,1.387176 2.36246,2.916008 3.92254,5.584362 4.81344,6.825747 5.85778,8.162279 1.06398,1.361652 1.06467,1.366304 0.82464,5.484994 -0.13214,2.267203 -0.74836,9.554221 -1.3694,16.19337 -0.62103,6.639151 -1.07646,12.666994 -1.01202,13.395185 l 0.11714,1.323996 5.38323,-3.651834 5.38323,-3.65182 1.09477,-3.560073 c 0.60214,-1.958045 1.49155,-4.824839 1.9765,-6.370659 0.48495,-1.54582 1.5123,-4.918518 2.28301,-7.494886 1.46179,-4.886534 2.28739,-7.621185 4.31571,-14.295076 l 1.212527,-3.989611 5.56568,-3.505275 c 3.06113,-1.927901 6.31515,-3.986132 7.23118,-4.573842 0.91603,-0.58771 1.84573,-0.95719 2.06598,-0.82106 0.22028,0.13613 0.40049,0.93267 0.40049,1.770087 0,0.837419 0.5271,4.883428 1.17133,8.991139 l 1.17134,7.468558 -0.75542,0.823783 c -0.60114,0.655539 -8.75003,12.739315 -9.99437,14.820397 -0.25043,0.418806 -0.14962,0.424822 0.58595,0.03497 1.10778,-0.587142 6.97006,-4.351359 11.12393,-7.142787 l 3.13255,-2.105081 2.68457,0.518372 c 1.47651,0.285106 4.37091,0.778962 6.432,1.097461 11.05402,1.708163 10.70353,1.616744 10.43816,2.72239 -0.13144,0.547895 -0.52955,1.586397 -0.88466,2.30778 -0.35506,0.721383 -0.86022,1.986145 -1.1225,2.810582 -0.26232,0.824437 -0.76815,2.173516 -1.12401,2.997954 -0.3559,0.824437 -1.31576,3.35396 -2.13304,5.621161 l -1.48597,4.122196 -7.71993,3.934808 c -4.24596,2.164149 -7.83747,4.054589 -7.98115,4.200983 -0.14367,0.146395 1.23573,0.181535 3.06535,0.07804 7.93805,-0.448829 14.98975,-0.959071 15.55914,-1.125791 0.51755,-0.151564 3.33452,1.775502 5.92295,4.05187 0.29837,0.262408 2.4063,1.878216 4.6843,3.59069 2.278,1.712459 4.14177,3.364781 4.14177,3.671804 0,0.344387 -2.51231,1.853883 -6.558,3.940332 -3.60692,1.860143 -6.90804,3.607304 -7.33585,3.882572 -0.7885,0.507368 -2.39904,0.22336 -12.5256,-2.20885 -7.76632,-1.865327 -12.38036,-2.941489 -17.05086,-3.976873 -2.88553,-0.639684 -5.77358,-1.298686 -6.4179,-1.46447 -0.97748,-0.251503 -1.78417,-0.01133 -4.871667,1.447799 -6.35258,3.003072 -8.60695,4.252766 -8.00975,4.440178 0.30916,0.09702 3.76616,1.69273 7.68223,3.546032 3.916087,1.853302 8.722187,4.117985 10.680217,5.032654 1.95804,0.914654 4.23461,1.982502 5.05904,2.373006 0.82446,0.390489 2.94985,1.382859 4.72312,2.205252 2.71871,1.260855 3.29935,1.689756 3.70386,2.735891 0.26384,0.682358 1.02961,2.421077 1.7017,3.863848 0.67209,1.4427574 1.916,4.1121214 2.76426,5.9319134 0.84824,1.819777 1.47223,3.42201603 1.38662,3.56050703 -0.0855,0.13852 -3.92373,0.298922 -8.52919,0.356483 -7.95058,0.09943 -8.42089,0.06614 -9.31044,-0.658464 -0.51527,-0.41973703 -2.28594,-1.63154403 -3.9348,-2.69290403 -1.64888,-1.061375 -3.25091,-2.15925 -3.56007,-2.439731 -0.50914,-0.461902 -18.291157,-12.3817304 -21.147657,-14.1758994 -4.76216,-2.991146 -4.50399,-2.896562 -5.9821,-2.191698 -1.34225,0.64008 -1.35103,0.659753 -1.38447,3.10427 -0.0185,1.353074 -0.0606,13.3803614 -0.0936,26.7273104 l -0.0601,24.2671966 1.59944,0.7521 1.59944,0.752085 3.41751,-2.347257 c 1.87961,-1.290994 3.87851,-2.684519 4.44202,-3.096749 0.56348,-0.412217 2.10015,-1.492344 3.4148,-2.400299 1.31467,-0.907956 3.57074,-2.523834 5.01349,-3.590846 1.44278,-1.067012 3.82601,-2.769345 5.29606,-3.782975 1.470077,-1.013615 4.980717,-3.50255 7.801417,-5.530942 4.14774,-2.9826616 5.30243,-3.6443406 6.03772,-3.4598036 0.95185,0.238897 13.07997,1.3262616 14.88461,1.3345046 1.53057,0.0071 1.57096,0.74353 0.16848,3.072573 -0.689,1.144203 -2.40917,4.294732 -3.82261,7.001162 -1.47861,2.831226 -2.79823,4.920776 -3.10763,4.920776 -0.29576,0 -5.62232,2.339212 -11.83681,5.198226 -16.189207,7.447969 -18.222237,8.438923 -18.105737,8.825234 0.10283,0.340959 8.96939,5.506609 10.695687,6.231288 0.99369,0.417131 8.04713,-1.254651 30.21272,-7.160885 5.98335,-1.594336 6.18329,-1.631543 6.18329,-1.151115 0,0.227169 0.96965,0.922671 2.15477,1.545584 1.18514,0.6229 2.40774,1.30006 2.7169,1.504808 0.30916,0.204763 1.32098,0.705331 2.24846,1.112378 3.30979,1.452601 7.68417,4.037324 7.79681,4.60694 0.0722,0.365108 -0.87896,1.250316 -2.57201,2.393698 -1.47766,0.997894 -2.96258,2.075841 -3.29988,2.395427 -0.33731,0.319601 -1.03489,0.863437 -1.55016,1.208517 -0.51529,0.3451 -2.11297,1.47952 -3.55037,2.52093 -2.34785,1.70099 -2.76692,1.8744 -4.12219,1.70579 -1.47743,-0.1838 -3.72046,-0.34802 -10.50255,-0.76895 -1.85498,-0.11515 -4.30019,-0.3055 -5.43378,-0.42304 l -2.0611,-0.21371 0.99597,0.78633 c 0.54777,0.43248 1.0899,0.78633 1.20471,0.78633 0.11487,0 1.89337,1.01182 3.95233,2.24847 2.05898,1.23666 3.84684,2.24846 3.97302,2.24846 0.1262,0 0.76626,0.40127 1.42236,0.89171 0.6561,0.49046 1.81384,1.11041 2.57277,1.37769 1.50114,0.5287 1.09806,-0.38221 6.12646,13.8446 0.47352,1.33972 1.1269,3.0592 1.45194,3.82109 0.32505,0.76189 0.46308,1.46432 0.30674,1.56095 -0.15638,0.0966 -2.72657,0.62109 -5.71152,1.16544 -2.98497,0.54435 -7.24916,1.33534 -9.476,1.75777 -3.56249,0.67577 -4.12515,0.70233 -4.68432,0.22106 -0.34951,-0.30083 -1.14139,-0.80001 -1.75972,-1.10932 -0.61832,-0.30929 -2.13603,-1.1527 -3.3727,-1.87425 -10.48973,-6.12041 -10.11852,-6.02689 -7.34433,-1.85057 0.74164,1.11646 2.22576,3.37636 3.29807,5.02198 1.07231,1.64562 2.18021,3.26709 2.46201,3.60328 0.2818,0.33619 1.05988,1.48666 1.72903,2.55662 l 1.21667,1.94537 -0.79367,6.486369 c -0.43654,3.56752 -0.87425,7.16093 -0.97273,7.98536 -0.31225,2.61438 -0.56175,2.69902 -3.01715,1.02362 -1.20948,-0.82529 -3.37951,-2.25654 -4.82227,-3.18056 -1.44277,-0.92403 -3.38207,-2.16582 -4.30956,-2.75951 -0.92748,-0.5937 -2.19225,-1.26174 -2.81059,-1.48452 -1.04605,-0.37689 -1.20622,-0.70265 -2.303437,-4.684299 -0.64857,-2.35358 -1.88767,-6.80876 -2.75356,-9.9004 -0.86589,-3.09165 -1.78986,-6.46435 -2.05329,-7.49489 -0.88301,-3.45462 -3.62953,-12.71459 -3.94717,-13.30814 -0.17281,-0.32289 -0.79101,-0.82952 -1.37375,-1.12585 -0.58278,-0.29633 -1.73412,-0.95986 -2.55855,-1.47454 -0.82444,-0.51466 -1.83625,-1.12743 -2.24847,-1.3617 -0.41222,-0.23428 -1.82108,-1.04041 -3.1308,-1.79143 l -2.38132,-1.36548 0.24288,3.09343 c 0.44393,5.65407 1.36191,16.19326 1.50981,17.33371 0.14897,1.14871 0.79171,8.09572 1.09215,11.80444 0.15251,1.88252 0.0341,2.28838 -1.36704,4.68431 -0.84371,1.44276 -1.81955,2.96047 -2.16854,3.3727 -0.34898,0.412219 -0.69814,0.922039 -0.77589,1.132929 -0.53986,1.46416 -3.56919,6.17458 -3.97096,6.17458 -0.27231,0 -1.25099,-1.13828 -2.17487,-2.52953 -1.82186,-2.74349 -4.87681,-7.190469 -6.857468,-9.982139 -0.936622,-1.32011 -1.192629,-2.00651 -1.03394,-2.77213 0.115999,-0.55966 0.473374,-4.22164 0.794179,-8.13772 0.320805,-3.91607 0.82364,-9.22807 1.117434,-11.80444 0.542082,-4.75387 1.678775,-18.2915 1.678775,-19.99378 0,-1.291235 -2.39242,-2.815305 -3.41595,-2.176089 -0.383266,0.23935 -2.005872,1.169641 -3.605802,2.067299 -3.859118,2.16523 -11.928709,6.77106 -19.772462,11.28541 -3.503867,2.0166 -6.960881,3.99992 -7.68226,4.40738 -1.24992,0.70601 -8.07544,4.68659 -12.272868,7.15744 -1.931783,1.13717 -1.967418,1.19015 -1.967418,2.92638 v 1.76823 l 8.150691,3.98679 c 4.482881,2.19275 8.487954,4.17383 8.900184,4.40242 1.289338,0.71498 2.423655,1.27381 9.743342,4.80017 3.916084,1.88663 7.846274,3.79206 8.733763,4.23429 1.496437,0.74565 1.891034,1.30678 5.433794,7.726959 2.101094,3.8076 3.870775,7.11778 3.932627,7.35597 0.141749,0.54591 -1.331842,0.80074 -6.295732,1.08875 -2.16415,0.12563 -5.145382,0.39674 -6.624964,0.60261 -2.921122,0.40645 -2.809286,0.44612 -6.721489,-2.38441 -0.641978,-0.4645 -2.075387,-1.46889 -3.185315,-2.23199 -1.109942,-0.76309 -2.692621,-1.89495 -3.517053,-2.51521 -0.824433,-0.62025 -2.004881,-1.41154 -2.623205,-1.75841 -0.618339,-0.34686 -2.304681,-1.50008 -3.747453,-2.56268 -1.442757,-1.06261 -3.635021,-2.592569 -4.87167,-3.399919 -1.236664,-0.80734 -2.417097,-1.64203 -2.623205,-1.85488 -0.206123,-0.21283 -1.284763,-0.94342 -2.397013,-1.62353 l -2.02226,-1.23653 0.250483,3.85975 c 0.137811,2.12287 0.356426,5.105229 0.485895,6.627499 l 0.235413,2.76775 5.441343,5.85136 c 6.279331,6.75251 14.202031,15.20474 17.582888,18.75807 2.117906,2.22597 2.343361,2.61689 2.389974,4.14417 0.02833,0.92748 0.09334,2.10793 0.144666,2.6232 0.05127,0.51527 0.213388,3.67717 0.360265,7.02646 0.197539,4.50468 0.154524,6.0896 -0.165261,6.0896 -0.444084,0 -2.750578,-0.88669 -6.379764,-2.4526 -1.133609,-0.48912 -3.831768,-1.58933 -5.995918,-2.44491 -2.16415,-0.85558 -4.145604,-1.63943 -4.403239,-1.74185 -0.257636,-0.1024 -0.468432,-0.37658 -0.468432,-0.60917 0,-0.53136 -8.253448,-17.22568 -8.429232,-17.04991 -0.07096,0.071 0.106369,3.67002 0.394144,7.99787 0.645618,9.71023 0.646,9.76458 0.07167,10.37158 -0.257692,0.27237 -1.889137,2.26585 -3.625434,4.43 -7.4749761,9.317 -8.4584941,10.49285 -8.7764371,10.49285 -0.10042,0 -0.744876,-0.71671 -1.432064,-1.59267 z m -8.797442,-99.494609 c 0.127755,-0.7729 0.234138,-3.00776 0.236404,-4.96634 l 0.0042,-3.561044 -4.403254,-2.604963 c -2.421731,-1.432729 -7.6072549,-4.452797 -11.5233309,-6.711277 -3.916078,-2.258465 -7.54967,-4.357604 -8.074649,-4.664769 -1.054928,-0.617234 -0.7755,-0.711847 -5.100206,1.726992 -1.204312,0.679142 -2.669651,1.62592 -3.256306,2.103954 l -1.066647,0.869133 8.37416,4.976283 c 4.605787,2.736967 9.133016,5.432311 10.060508,5.989661 0.927492,0.55735 3.794285,2.24445 6.370653,3.74913 2.5763659,1.50468 5.3588379,3.1308 6.1832849,3.61361 0.824433,0.48281 1.603387,0.87943 1.731,0.88139 0.127614,10e-4 0.336555,-0.62884 0.46431,-1.40176 z m 22.8892381,0.46006 c 0.766079,-0.51987 2.180849,-1.3693 3.143929,-1.88763 0.963093,-0.51832 2.341279,-1.30202 3.062672,-1.74155 1.696044,-1.03341 20.61872,-12.227606 22.970013,-13.588527 0.988334,-0.572037 1.747189,-1.088158 1.686342,-1.146937 -0.273031,-0.263782 -4.136086,-2.800037 -4.264833,-2.800037 -0.07917,0 -1.005145,-0.529816 -2.057541,-1.17736 -2.128018,-1.309379 -1.969981,-1.334675 -5.78005,0.925022 -0.824433,0.488955 -3.353961,1.951102 -5.621165,3.249192 -2.267204,1.298091 -5.049678,2.900627 -6.183287,3.561202 -1.133595,0.660574 -3.578807,2.081505 -5.43378,3.15761 -1.854988,1.076105 -3.565323,2.154944 -3.80075,2.39741 -0.612007,0.630325 -0.212538,9.996845 0.426338,9.996845 0.252579,0 1.086033,-0.42535 1.852112,-0.94524 z M -1.5098351,36.140644 c 0.08569,-1.752089 -0.09008,-16.212421 -0.198474,-16.320773 -0.159609,-0.159623 -1.670621,0.618396 -2.336053,1.202813 -0.582789,0.511828 -2.264004,1.758477 -7.0898979,5.257274 -2.086131,1.512456 -3.890453,2.907666 -4.009611,3.10046 -0.185126,0.299545 12.5393479,7.190164 13.3300429,7.218562 0.154582,0.0057 0.291373,-0.200698 0.303993,-0.458336 z m 22.3532331,-1.63946 c 2.223821,-1.159331 5.181597,-2.702805 6.572827,-3.429934 1.391245,-0.727129 2.529528,-1.459003 2.529528,-1.626373 0,-0.167385 -0.352191,-0.492807 -0.782636,-0.723178 -0.430459,-0.23037 -1.400111,-0.953009 -2.154788,-1.60585 -0.754677,-0.652842 -1.649928,-1.355623 -1.989457,-1.561732 -1.098186,-0.666664 -6.862345,-4.831857 -7.372757,-5.327595 -0.659172,-0.640194 -1.062791,-0.60647 -1.338428,0.11175 -0.385986,1.00584 -0.261715,16.270722 0.132429,16.270722 0.197964,0 2.179418,-0.948537 4.403253,-2.107881 z m -59.377786,-14.472301 1.03492,-0.715316 -0.09805,-14.4880786 -0.09806,-14.488065 -4.309554,-2.3359264 c -2.370258,-1.284762 -4.394472,-2.340812 -4.498263,-2.346789 -0.250284,-0.01445 -0.04263,34.945746 0.219847,37.001714 l 0.204126,1.599222 3.255055,-1.755729 c 1.790289,-0.965643 3.720783,-2.077611 4.289988,-2.471032 z m 99.906821,-21.1884356 0.05184,-13.2228764 -4.496932,2.336294 -4.496931,2.3363084 v 14.482244 c 0,16.2776306 -0.259845,14.8492916 2.997959,16.4788096 0.927487,0.463927 1.770658,0.947316 1.873712,1.074207 0.103111,0.126906 0.946239,0.587335 1.873726,1.02319 l 1.686342,0.792451 0.229223,-6.038876 C 61.217427,14.780816 61.343922,6.1130264 61.372433,-1.1595526 Z M -22.657415,11.272388 c 1.210035,-0.53806 2.874604,-1.2782616 3.699041,-1.6448856 6.546906,-2.911363 8.656522,-3.882445 8.897624,-4.095663 0.1531809,-0.135404 -0.605676,-0.762411 -1.686349,-1.393228 -1.080668,-0.630816 -4.383893,-2.617114 -7.340497,-4.41398897 -2.956606,-1.79686003 -5.427295,-3.21276403 -5.490421,-3.14642103 -0.493785,0.518853 -1.120214,15.6724916 -0.647879,15.6724916 0.202628,0 1.358444,-0.440232 2.568481,-0.978305 z M 39.896661,4.4747414 c -0.149524,-4.27675897 -0.340959,-7.845452 -0.425402,-7.930405 -0.221957,-0.223289 -14.771931,8.619165 -14.771931,8.977347 0,0.165119 0.632389,0.507863 1.405295,0.761618 0.772905,0.253782 1.995518,0.755725 2.716897,1.115437 0.721378,0.359712 2.744998,1.269395 4.496931,2.021509 1.751934,0.7521126 3.859869,1.6861856 4.684301,2.0757126 0.824447,0.389526 1.649007,0.718701 1.832383,0.731491 0.192865,0.01275 0.218799,-3.2545596 0.06147,-7.7527096 z M -1.1561001,-14.961846 c -0.707215,-7.922658 -1.230771,-12.135609 -1.50815,-12.135609 -0.149199,0 -2.021439,1.128241 -4.160519,2.507191 -2.139074,1.37895 -5.0928759,3.283256 -6.5639939,4.231789 l -2.67476,1.724584 1.550527,0.902304 c 3.695008,2.150255 13.53351586,7.444 13.63889186,7.338609 0.0636,-0.06359 -0.06331,-2.11952 -0.28199596,-4.568868 z m 20.3727131,2.729021 c 7.60538,-4.053951 11.516025,-6.354978 11.228504,-6.606806 -0.171591,-0.150304 -2.251298,-1.508363 -4.621556,-3.017915 -2.370258,-1.509553 -5.206355,-3.322715 -6.302459,-4.029236 -1.096104,-0.706521 -2.055133,-1.222373 -2.131178,-1.146314 -0.518329,0.518315 -1.96797,16.424379 -1.496876,16.424379 0.152174,0 1.647789,-0.73084 3.323565,-1.624108 z m -42.859291,-16.823649 c 2.725516,-1.541124 4.172044,-2.366888 6.558026,-3.743728 1.236656,-0.713617 4.987193,-2.874438 8.3345289,-4.80183 5.678387,-3.269601 6.102104,-3.589882 6.325591,-4.781179 0.214677,-1.144289 -0.123365,-8.338996 -0.405092,-8.620681 -0.0626,-0.0626 -0.76615,0.260213 -1.563318,0.717483 -0.797154,0.457271 -3.641636,2.043887 -6.3210579,3.525793 -2.679422,1.481919 -6.979611,3.894767 -9.555979,5.3619 -2.576366,1.467132 -7.163712,4.062506 -10.1941,5.767487 -3.030385,1.704996 -5.51775,3.224335 -5.527478,3.376339 -0.01826,0.285197 1.274891,1.156129 5.784368,3.895787 l 2.61672,1.589732 1.130722,-0.666792 c 0.621897,-0.366723 1.889578,-1.095877 2.817069,-1.620311 z m 74.219346,-3.100036 c 0.02861,-0.206108 -0.427881,-0.646425 -1.014494,-0.978476 -0.586626,-0.332065 -3.090192,-1.749908 -5.563504,-3.150755 -22.736895,-12.87795 -26.167593,-14.763645 -26.493468,-14.562253 -0.518826,0.320649 -0.363891,9.368177 0.167682,9.791753 0.509874,0.406296 13.135869,7.699071 20.292646,11.721042 l 4.45971,2.506256 4.049674,-2.476414 c 2.22732,-1.362024 4.073115,-2.645045 4.101754,-2.851153 z"
       style="fill:#000000;stroke-width:0.37474379"
       inkscape:connector-curvature="0" />
  </g>
</svg>
