<?xml version="1.0" encoding="UTF-8" standalone="no"?>
<svg
   xmlns:dc="http://purl.org/dc/elements/1.1/"
   xmlns:cc="http://creativecommons.org/ns#"
   xmlns:rdf="http://www.w3.org/1999/02/22-rdf-syntax-ns#"
   xmlns:svg="http://www.w3.org/2000/svg"
   xmlns="http://www.w3.org/2000/svg"
   xmlns:sodipodi="http://sodipodi.sourceforge.net/DTD/sodipodi-0.dtd"
   xmlns:inkscape="http://www.inkscape.org/namespaces/inkscape"
   sodipodi:docname="am-snow.svg"
   inkscape:version="1.0 (4035a4fb49, 2020-05-01)"
   id="svg8"
   version="1.1"
   viewBox="0 0 210 297"
   height="297mm"
   width="210mm">
  <defs
     id="defs2" />
  <sodipodi:namedview
     inkscape:window-maximized="1"
     inkscape:window-y="27"
     inkscape:window-x="0"
     inkscape:window-height="983"
     inkscape:window-width="1920"
     showgrid="false"
     inkscape:document-rotation="0"
     inkscape:current-layer="layer1"
     inkscape:document-units="mm"
     inkscape:cy="560"
     inkscape:cx="400"
     inkscape:zoom="0.35"
     inkscape:pageshadow="2"
     inkscape:pageopacity="0.0"
     borderopacity="1.0"
     bordercolor="#666666"
     pagecolor="#ffffff"
     id="base" />
  <metadata
     id="metadata5">
    <rdf:RDF>
      <cc:Work
         rdf:about="">
        <dc:format>image/svg+xml</dc:format>
        <dc:type
           rdf:resource="http://purl.org/dc/dcmitype/StillImage" />
        <dc:title></dc:title>
      </cc:Work>
    </rdf:RDF>
  </metadata>
  <g
     id="layer1"
     inkscape:groupmode="layer"
     inkscape:label="Layer 1">
    <path
       id="path847"
       d="m -1.962711,125.5501 c -1.2175903,-1.5457 -2.3600003,-2.96331 -2.5386803,-3.15024 -0.17867,-0.18693 -1.17595,-1.38104 -2.21616,-2.65358 l -1.8913,-2.31373 0.31472,-5.97927 c 0.17309,-3.28859 0.35559,-6.18779 0.40555,-6.44265 0.05,-0.25486 -10e-4,-0.40646 -0.11386,-0.33688 -0.20729,0.12812 -5.6490697,11.00196 -6.1017797,12.19267 -0.13511,0.35539 -0.44747,0.64614 -0.69413,0.64614 -0.24666,0 -1.23187,0.34446 -2.18936,0.76546 -0.95749,0.42101 -2.69339,1.1533 -3.85756,1.62732 -1.16417,0.47403 -2.81121,1.16232 -3.6601,1.52953 -1.04329,0.45133 -1.60115,0.57428 -1.72155,0.37947 -0.098,-0.15851 -0.0973,-1.63775 0.001,-3.28718 0.0988,-1.64944 0.20977,-4.26092 0.24668,-5.8033 l 0.0671,-2.80432 1.44475,-1.5613 c 0.79462,-0.85872 2.35253,-2.51381 3.46203,-3.67797 1.1095,-1.16417 3.56172,-3.78355 5.44938,-5.82084 1.88766,-2.03729 4.20306,-4.50947 5.14533,-5.49373 2.5814897,-2.696533 2.5619497,-2.645853 2.9162597,-7.562623 0.17142,-2.3788 0.25877,-4.378 0.19411,-4.44266 -0.10148,-0.10148 -4.0280197,2.36952 -4.8366797,3.04374 -0.15789,0.13165 -1.39174,0.99715 -2.74188,1.92335 -1.35014,0.9262 -2.78554,1.92212 -3.18977,2.21316 -0.40423,0.29105 -1.77238,1.24355 -3.04035,2.11667 -1.26796,0.873133 -2.85854,1.975843 -3.53462,2.450473 -3.14051,2.20476 -2.95109,2.12805 -4.67362,1.89265 -0.87048,-0.11896 -3.284,-0.33701 -5.36337,-0.48456 -2.07938,-0.14754 -3.88306,-0.33154 -4.0082,-0.40887 -0.12512,-0.0773 0.5718,-1.53999 1.54874,-3.250353 0.97693,-1.71037 2.24484,-3.98834 2.81757,-5.06216 l 1.04132,-1.95241 5.82083,-2.84079 c 3.20146,-1.56243 9.12482,-4.46687 13.16302,-6.45429 l 7.3421897,-3.61351 v -1.25309 c 0,-1.45011 0.51315,-1.02488 -5.2916697,-4.38502 -2.25557,-1.30564 -4.81541,-2.78842 -5.68854,-3.29507 -0.87312,-0.50664 -1.94414,-1.10571 -2.38003,-1.33125 -0.4359,-0.22554 -1.72456,-0.9821 -2.86369,-1.68123 -1.13901,-0.69913 -2.13015,-1.27114 -2.20241,-1.27114 -0.0723,0 -0.98626,-0.51882 -2.0311,-1.15293 -1.04485,-0.63411 -2.55456,-1.51208 -3.35493,-1.95104 -3.4004,-1.86499 -7.25076,-4.07996 -7.91701,-4.55436 -0.71615,-0.50995 -0.7193,-0.50969 -1.82415,0.14916 -1.01835,0.60727 -1.10676,0.74861 -1.10688,1.76947 -1.2e-4,1.01953 0.74093,8.96924 2.11354,22.67303 0.63608,6.35054 0.62412,5.95325 0.1927,6.39725 -0.18685,0.19229 -0.89896,1.18306 -1.58247,2.20171 -3.5795,5.33461 -4.85151,7.12819 -5.10978,7.20496 -0.23586,0.0701 -2.49303,-3.3239 -2.49303,-3.74866 0,-0.0725 -0.74414,-1.23697 -1.65364,-2.58778 l -1.65365,-2.45602 0.0568,-2.09588 c 0.0312,-1.15274 0.35857,-5.14133 0.72744,-8.86354 0.67797,-6.84133 1.20767,-13.58453 1.07785,-13.72128 -0.0926,-0.0976 -1.58504,0.72974 -5.27389,2.92363 l -3.01116,1.79084 -0.67551,2.17791 c -0.37154,1.19784 -0.9364,3.1304 -1.25526,4.29457 -0.31885,1.16416 -0.90496,3.30729 -1.30246,4.7625 -0.39749,1.45521 -1.22856,4.43177 -1.84682,6.61458 -0.61826,2.18281 -1.22736,4.48099 -1.35356,5.10706 -0.28384,1.40807 -0.59208,1.97963 -1.10848,2.05542 -0.21918,0.0322 -1.21483,0.5855 -2.21255,1.22963 -0.99772,0.64412 -3.1546,2.03939 -4.79307,3.100603 -3.26899,2.11725 -3.76784,2.16605 -3.76784,0.36857 0,-0.498433 -0.24945,-3.023973 -0.55434,-5.612313 l -0.55434,-4.70605 3.27826,-4.8725 c 1.80304,-2.67988 3.55672,-5.32907 3.89706,-5.8871 l 0.6188,-1.0146 -1.2922,0.69144 c -4.0733,2.17958 -9.19694,5.17174 -9.38958,5.48344 -0.11823,0.19129 -1.00232,0.10776 -2.7848,-0.26312 -1.43636,-0.29886 -3.8022,-0.73561 -5.2574,-0.97056 -4.567034,-0.73737 -5.825364,-1.05867 -5.772574,-1.47396 0.0265,-0.20884 0.54114,-1.6894 1.14355,-3.29013 0.60242,-1.60073 1.256534,-3.38666 1.453594,-3.96875 1.41856,-4.19013 2.00461,-5.56417 2.40933,-5.64886 0.24343,-0.0509 1.46789,-0.69836 2.72102,-1.43873 1.25312,-0.74036 2.51653,-1.47575 2.80758,-1.63419 2.54501,-1.38551 4.93508,-2.90645 4.69374,-2.9869 -0.16253,-0.0542 -2.78491,0.0876 -5.82751,0.31499 -8.559144,0.63975 -7.661614,0.78346 -11.050514,-1.76933 -1.59376,-1.20054 -3.59232,-2.65607 -4.441255,-3.23449 -2.50478,-1.70668 -2.49498,-1.74262 0.944735,-3.46232 4.52381,-2.26171 7.45693,-3.88141 7.674984,-4.23822 0.21747,-0.35586 0.16977,-0.36462 5.0954,0.9365 6.37615,1.68429 18.80507,4.85092 19.52307,4.97407 0.50315,0.0863 1.26018,-0.14773 2.38125,-0.73617 2.79169,-1.46534 6.53873,-3.70571 6.53169,-3.90531 -0.008,-0.22972 -1.15556,-0.78448 -12.14887,-5.87351 -4.72104,-2.18546 -8.80098,-3.97357 -9.06654,-3.97357 -0.47472,0 -0.70439,-0.37446 -2.83992,-4.63021 -0.43814,-0.87312 -1.28084,-2.41071 -1.87268,-3.41687 -0.59184,-1.00615 -1.02541,-1.9614 -0.96349,-2.12276 0.07,-0.18239 2.41018,-0.47804 6.18546,-0.78145 l 6.07286,-0.48806 1.56525,1.17544 c 0.86089,0.6465 2.05946,1.52371 2.66349,1.94937 0.60402,0.42565 3.69965,2.63079 6.87916,4.90029 3.17952,2.26951 6.79297,4.82475 8.02989,5.67832 1.23693,0.85357 2.7641,1.9435 3.39371,2.42206 1.34295,1.02078 1.40396,1.02837 2.80661,0.34941 l 1.07573,-0.5207 -0.0696,-18.89766 -0.0696,-18.89765563 -0.89643,-0.42538 c -0.49304,-0.23395997 -1.04394,-0.42538997 -1.22424,-0.42538997 -0.28939,0 -3.94303,2.4075993 -20.06007,13.2187556 l -4.12604,2.7677 -5.82701,-0.0798 c -3.20486,-0.0439 -5.85997,-0.11188 -5.90025,-0.15102 -0.0403,-0.0392 0.97175,-2.37019 2.24896,-5.1801003 l 2.32219,-5.10892 1.98438,-0.90659 c 3.80348,-1.73767 4.90849,-2.248306 7.01146,-3.24011533 1.16416,-0.54905 3.30729,-1.55196997 4.7625,-2.22869997 5.38772,-2.50553 8.33437,-3.97428 8.33437,-4.15424 0,-0.39659 -7.81833,-4.0013404 -8.62528,-3.9768004 -0.45105,0.0137 -1.8798,0.26969 -3.175,0.5688304 -1.29521,0.29915 -3.42147,0.78042 -4.72501,1.06949 -1.30355,0.28908 -3.20855,0.7549 -4.23334,1.03517 -1.02478,0.28026 -2.27996,0.56352 -2.78929,0.62945 -0.50932,0.0659 -2.11666,0.42355 -3.57187,0.79469 -6.76351,1.72497 -6.81497,1.73444 -7.394054,1.36117 -0.2989,-0.19267 -2.62704,-1.42331 -5.17366,-2.73475 -2.546615,-1.31145 -4.655155,-2.5402504 -4.685655,-2.7306704 -0.0305,-0.19042 0.98154,-1.1375 2.24896,-2.10463 1.267425,-0.96713 3.494335,-2.68362 4.948705,-3.81441 1.45436,-1.1308 2.76405,-2.04947 2.91041,-2.0415 0.14637,0.008 2.733194,0.2064 5.748504,0.44097 6.03448,0.46943 8.06247,0.52885 7.78274,0.22804 -0.10149,-0.10914 -2.63701,-1.448589 -5.63449,-2.97656 l -5.44997,-2.77812 -0.91747,-2.38125 c -0.50461,-1.30969 -1.277534,-3.33375 -1.717604,-4.49792 -0.44007,-1.16417 -1.16532,-3.03686 -1.61166,-4.16154 -0.44634,-1.12469 -0.75124,-2.10518 -0.67755,-2.17886 0.0737,-0.0737 1.07834,-0.26639 2.23255,-0.42823 1.154214,-0.16183 3.705924,-0.57177 5.670454,-0.91098 6.66209,-1.15032 5.2228,-1.47011 11.24058,2.4975 2.88839,1.90436 5.30795,3.40615 5.3768,3.3373 0.0966,-0.0966 -6.31958,-9.88789 -7.46093,-11.38567 -0.14375,-0.18864 0.0893,-2.38614 0.59531,-5.61219 0.45737,-2.91618 0.83157,-5.73339 0.83157,-6.26047 0,-0.69206 0.11474,-0.95832 0.41298,-0.95832 0.22714,0 1.5666,0.74949 2.97657,1.66554 1.40996,0.91604 3.60724,2.31503 4.88282,3.10885 l 2.31924,1.44332 0.56195,1.85208 c 0.30907,1.01865 0.88776,2.92365 1.28596,4.23334 0.39821,1.30968 1.10549,3.69093 1.57174,5.29166 0.46624,1.60073 1.12106,3.74386 1.45513,4.7625 0.48129,1.46748 2.25758,7.31242 2.66157,8.75795 0.0448,0.1602 1.87789,1.49861 4.0736,2.97423 l 3.99219,2.68296 0.005,-0.98986 c 0.003,-0.54442 -0.34865,-4.85939 -0.78088,-9.58882 -0.43224,-4.72943 -0.88266,-9.84412 -1.00093,-11.36598 -0.24552,-3.15919 -0.58847,-2.32975 3.04768,-7.371 1.18785,-1.64685 2.366,-3.34349 2.61814,-3.77031 0.25212,-0.42682 0.53921,-0.77604 0.63795,-0.77604 0.0987,0 0.85244,1.16086 1.67487,2.57969 0.82243,1.41882 2.15517,3.64528 2.96165,4.94769 l 1.46633,2.368 -0.30366,4.64346 c -0.167,2.55389 -0.59509,8.75111 -0.9513,13.77157 -0.35621,5.02047 -0.64674,9.51339 -0.64563,9.98427 0.002,0.70093 0.18899,0.97986 1.03329,1.53859 l 1.03125,0.68246 4.45885,-2.57093 c 8.74033,-5.03957 17.54328,-10.14406 24.06907,-13.95669 1.9088497,-1.11524 3.6218897,-2.0277 3.8067397,-2.0277 0.25316,0 0.29237,-0.37209 0.15889,-1.50779 -0.0975,-0.82929 -0.20316,-1.51628 -0.23487,-1.52664 -0.0317,-0.0104 -0.65296,-0.29757 -1.38056,-0.63825 -0.72761,-0.34068 -6.2640197,-2.87815 -12.3031297,-5.63882 -13.74048,-6.2812 -13.18456,-6.00438 -13.39186,-6.66839 -0.0956,-0.30611 -1.23243,-2.74998 -2.52638,-5.43081 -1.29395,-2.68084 -2.26005,-4.95908 -2.14689,-5.06277 0.26882,-0.246294 11.45055,-0.497703 11.45055,-0.257451 0,0.101084 1.04179,0.917921 2.3151,1.815181 13.50132,9.51405 16.2062797,11.40367 16.7104497,11.67349 0.55254,0.29572 0.55359,0.28691 0.54367,-4.54167 l -0.01,-4.83795 -2.9247297,-3.04271 c -1.6086,-1.673488 -5.65637,-5.793916 -8.99505,-9.156505 l -6.07032,-6.113796 0.164,-1.029954 c 0.0902,-0.566473 0.0287,-3.339656 -0.1366,-6.162628 -0.20473,-3.49582 -0.21435,-5.218919 -0.0302,-5.403111 0.18419,-0.18419 0.96898,0.05139 2.46087,0.738714 1.20473,0.555032 2.54761,1.165108 2.98418,1.355722 0.43656,0.190617 1.83867,0.800923 3.1158,1.356236 l 2.32205,1.009658 3.14649,6.34502 3.1464697,6.34502 0.0216,-6.416209 0.0216,-6.416209 3.77031,-4.433411 c 2.07367,-2.438376 4.02557029,-4.760066 4.33756029,-5.159312 0.31199,-0.399245 0.67853,-0.7259 0.81454,-0.7259 0.13602,0 1.36846001,1.339453 2.73876001,2.976563 1.3703,1.637109 2.70845,3.214687 2.97367,3.505729 0.26522,0.291041 1.08177,1.247494 1.81456,2.125448 l 1.33234,1.596284 -0.0399,6.27507 c -0.022,3.451291 0.062,6.275072 0.18661,6.275072 0.1246,0 1.57971,-2.749883 3.2336,-6.11085 l 3.00706,-6.110851 1.34306,-0.621131 c 6.20868,-2.871351 9.14174,-4.076404 9.54509,-3.921622 0.38621,0.148203 0.43077,0.402711 0.29007,1.656757 -0.0914,0.814911 -0.22445,3.617476 -0.2956,6.227924 l -0.12936,4.746268 -3.87555,3.984982 c -2.13155,2.191739 -6.11955,6.279409 -8.86221,9.083709 l -4.98665,5.098733 v 4.89611 4.89612 l 2.3151,-1.56912 c 4.06763,-2.75693 12.80744,-8.92942 15.81951,-11.17254 l 1.63639,-1.218629 5.52648,0.160298 c 5.31226,0.154088 5.52512,0.180811 5.49149,0.689471 -0.0359,0.54322 -4.62433,10.32442 -5.03067,10.72395 -0.18087,0.17783 -8.07634,3.84305 -14.91038,6.92166 -2.49777,1.1252 -6.90364,3.16771 -9.85573,4.56901 l -2.05052,0.97334 v 1.37874 c 0,1.25212 0.0668,1.40737 0.7276,1.69046 0.40018,0.17144 1.50151,0.77556 2.4474,1.34249 2.45973,1.47426 18.54726,10.817781 24.39576,14.16886 l 4.94888,2.83563 1.09893,-0.69372 1.09892,-0.69372 -0.15677,-1.63231 c -0.13892,-1.44648 -1.10742,-15.20453 -1.70661,-24.24324 l -0.21852,-3.29634 2.63239,-4.37657 c 1.44781,-2.40712 2.8036,-4.65132 3.01286,-4.98712 l 0.38049,-0.61055 0.48508,0.61668 c 0.26679,0.33917 1.75665,2.3946 3.31079,4.56761 l 2.82571,3.95093 -0.29948,3.84814 c -0.45163,5.80331 -1.57028,18.52651 -1.73104,19.68844 -0.18417,1.33115 -0.13579,1.312 4.39168,-1.7384 l 3.59096,-2.41942 0.99575,-3.32769 c 0.54767,-1.83024 1.27206,-4.22067 1.60976,-5.31207 0.33771,-1.09141 0.99353,-3.23453 1.45737,-4.7625 0.46385,-1.52797 1.11806,-3.6711 1.4538,-4.7625 0.33574,-1.09141 0.93184,-3.05594 1.32466,-4.36563 0.39282,-1.30968 0.81946,-2.51026 0.94811,-2.66795 0.12864,-0.15768 1.09896,-0.8025 2.156267,-1.43291 1.057304,-0.63042 3.159347,-1.95992 4.671205,-2.95445 1.511858,-0.99452 2.903548,-1.80823 3.092643,-1.80823 0.209735,0 0.410586,0.4901 0.515051,1.25677 0.09418,0.69123 0.458663,3.11776 0.809961,5.3923 0.778709,5.0419 0.79719,6.04269 0.12732,6.89429 -0.281267,0.35758 -1.722056,2.48699 -3.201751,4.73204 -1.479696,2.24504 -2.972435,4.49223 -3.317201,4.99374 -0.344765,0.50152 -0.580757,0.95794 -0.524428,1.01428 0.09004,0.09 2.04434,-1.15422 8.971693,-5.71206 l 1.813785,-1.19337 4.93309,0.82626 c 2.713196,0.45444 5.468868,0.89655 6.123712,0.98246 2.384716,0.31285 2.645833,0.40915 2.645833,0.97571 0,0.29766 -0.292629,1.21093 -0.650293,2.02949 -0.61595,1.40973 -1.327943,3.24012 -3.333062,8.56871 -0.870505,2.31335 -0.875109,2.31926 -2.347036,3.00762 -3.425928,1.60217 -9.514978,4.73202 -9.792467,5.03345 -0.211164,0.22937 8.623667,-0.26025 12.363526,-0.68518 1.461823,-0.1661 1.744292,-0.12222 2.318623,0.3602 1.364562,1.14615 2.206202,1.80898 5.767414,4.54215 3.051996,2.34234 3.605366,2.87104 3.307296,3.15994 -0.19688,0.1908104 -1.84624,1.1208804 -3.665251,2.0668004 -1.81901,0.94593 -4.06781,2.12706 -4.997317,2.62475 l -1.690053,0.90486 -1.881822,-0.45045 c -4.598607,-1.10077 -9.027978,-2.1459 -12.332891,-2.91 -1.964531,-0.45421 -4.7625,-1.1153 -6.217708,-1.4691 -5.491929,-1.3352204 -4.725289,-1.4064304 -9.458849,0.87862 -2.29196,1.1064 -4.16279,2.07972 -4.1574,2.16295 0.005,0.0832 1.34483,0.77978 2.97656,1.5479 3.95798,1.8632 4.55758,2.14575 8.258439,3.89157997 1.74625,0.82377 4.990703,2.33842533 7.209896,3.36589533 2.219193,1.02748 4.039346,2.00096 4.044786,2.16329 0.0054,0.16233 0.996479,2.43827 2.202309,5.05764 l 2.192422,4.7625003 -5.84033,0.15738 -5.840333,0.15737 -3.011194,-2.00946 c -1.656154,-1.1052 -3.517935,-2.36664 -4.137275,-2.8032103 -1.51342,-1.06677 -1.87021,-1.30543 -7.6682,-5.12946 -2.76489,-1.82357 -5.18441,-3.469276 -5.37671,-3.657116 -0.19229,-0.18785003 -0.45107,-0.34154033 -0.57504,-0.34154033 -0.12398,0 -0.777,-0.421029 -1.45116,-0.935619 -1.5804,-1.20634997 -2.40361,-1.35566997 -3.54811,-0.64356 l -0.89686,0.55803 0.10311,18.70067563 c 0.0785,14.23511 0.1802,18.78228 0.42595,19.04242 0.17757,0.18796 0.68285,0.46724 1.12284,0.62063 1.00073,0.34885 0.17301,0.84856 9.22699,-5.57058 2.37746,-1.68559 5.24976,-3.71955 6.38288,-4.51992 1.13312,-0.80036 3.704025,-2.62604 5.71312,-4.05707 l 3.652898,-2.60187 5.971505,0.46174 c 3.284329,0.25396 6.068267,0.54525 6.186533,0.64731 0.118263,0.10206 -0.326179,1.12465 -0.987647,2.27242 -0.661472,1.14776 -1.503143,2.68216 -1.870382,3.40976 -1.789872,3.54624 -2.397311,4.47289 -3.04554,4.64601 -0.363802,0.0972 -1.494895,0.56635 -2.513541,1.04265 -1.018646,0.4763 -2.745052,1.27269 -3.836459,1.76974 -1.091406,0.49707 -2.460624,1.12886 -3.042708,1.404 -1.894345,0.8954 -7.089079,3.30112 -9.448259,4.37556 -1.26748,0.57725 -2.30852,1.10908 -2.31343,1.18184 -0.0101,0.14974 0.56457,0.49601 4.48565,2.70288 1.52797,0.85997 2.89123,1.67519 3.02948,1.8116 0.52034,0.51343 0.88387,0.43308 17.475726,-3.86247 3.201458,-0.82885 6.354323,-1.64924 7.006351,-1.8231 1.112679,-0.29667 1.250924,-0.27222 2.248959,0.39781 0.584888,0.39265 2.968439,1.68886 5.296773,2.88047 2.328332,1.19162 4.326542,2.25663 4.440452,2.3667 0.36105,0.34886 -0.0653,0.92764 -1.22587,1.66421 -0.61891,0.39279 -2.658852,1.86749 -4.533213,3.27713 l -3.407939,2.56299 -3.325257,-0.17584 c -1.828892,-0.0967 -4.910351,-0.30383 -6.847691,-0.46026 -1.937338,-0.15642 -3.580411,-0.22643 -3.651269,-0.15557 -0.115075,0.11507 1.586646,1.18409 5.586204,3.50925 0.727604,0.42299 1.680104,0.98319 2.116666,1.24488 0.436563,0.26169 1.285134,0.71025 1.885717,0.99681 1.069891,0.51047 1.117251,0.59193 2.342642,4.02873 0.68789,1.92926 1.666637,4.63883 2.175008,6.02128 1.456425,3.96041 1.699101,3.50105 -2.215912,4.1944 -1.866543,0.33057 -4.9353,0.88841 -6.819474,1.23967 -2.920368,0.54442 -3.486357,0.58498 -3.836458,0.27496 -0.225878,-0.20002 -0.827408,-0.59583 -1.336731,-0.8796 -0.509323,-0.28376 -2.235729,-1.26679 -3.836458,-2.18451 -1.600729,-0.91773 -3.43762,-1.96982 -4.081984,-2.33799 -0.947049,-0.54111 -1.138595,-0.58347 -0.999516,-0.22104 0.09463,0.24659 1.839801,2.92952 3.878167,5.96207 l 3.706116,5.51373 -0.504367,3.94259 c -0.277402,2.16842 -0.58752,4.75571 -0.689152,5.74953 -0.108585,1.061843 -0.322691,1.859853 -0.519224,1.935273 -0.183941,0.0706 -1.925232,-0.9094 -3.869531,-2.177753 -1.944301,-1.26834 -4.061521,-2.64523 -4.704932,-3.05975 -0.643413,-0.41452 -1.384223,-0.75367 -1.646253,-0.75367 -0.51208,0 -0.44599,0.18981 -2.2112,-6.35 -0.53027,-1.96453 -1.18502,-4.28625 -1.455,-5.15937 -0.26998,-0.87313 -0.92678,-3.19485 -1.45954,-5.15938 -0.53277,-1.96453 -1.25576,-4.50075 -1.60665,-5.63605 -0.35088,-1.1353 -0.63798,-2.20915 -0.63798,-2.38633 0,-0.17717 -0.6846,-0.71449 -1.52135,-1.19402 -0.83674,-0.47954 -2.29526,-1.33966 -3.24115,-1.91139 -0.94588,-0.57173 -2.18515,-1.29047 -2.75393,-1.59722 l -1.03415,-0.55772 0.16827,2.87105 c 0.0926,1.57908 0.45882,5.78809 0.81394,9.35335 0.35512,3.56526 0.7213,7.49432 0.81375,8.73125 0.0924,1.23693 0.22115,2.43156 0.28602,2.65475 0.10466,0.36013 -2.07676,4.41341 -2.55975,4.75624 -0.10457,0.0742 -0.5033,0.72906 -0.88608,1.4552 -1.20094,2.27824 -2.14766,3.70152 -2.46216,3.70152 -0.27748,0 -1.32149,-1.45176 -5.61299,-7.80521 l -1.51909,-2.24896 0.47194,-4.49792 c 0.25957,-2.47385 0.78444,-7.83166 1.16639,-11.90625 0.38195,-4.07458 0.74184,-7.76552 0.79976,-8.20208 0.0579,-0.43656 0.13215,-1.67595 0.16497,-2.75421 0.056,-1.84034 0.0156,-1.99839 -0.66024,-2.57968 -0.39595,-0.34058 -0.90446,-0.61923 -1.13003,-0.61923 -0.22557,0 -1.37979,0.55144 -2.56494,1.22542 -1.18514,0.67398 -3.46449,1.96669 -5.06522,2.87268 -1.60072,0.90598 -3.32713,1.88779 -3.83645,2.18179 -3.04941,1.76024 -4.4994,2.59192 -5.55625,3.18695 -0.65485,0.36869 -2.0836,1.19411 -3.175,1.83427 -1.09141,0.64016 -2.2225,1.29782 -2.51355,1.46146 -0.29104,0.16364 -1.18401,0.677 -1.98437,1.1408 -0.80036,0.4638 -2.63303,1.51784 -4.07258,2.3423 -4.0529,2.3212 -4.1295,2.38994 -4.1295,3.70545 0,1.09976 0.0368,1.14775 1.38906,1.81195 0.76398,0.37525 5.55625,2.72825 10.64948,5.22889 16.34852,8.02669 14.44466,6.94683 15.29254,8.67381 0.40725,0.8295 1.28747,2.46068 1.95605,3.62485 0.66857,1.16417 1.4384,2.533403 1.71072,3.042723 0.27233,0.50932 0.63806,1.12869 0.81272,1.37637 0.17467,0.24768 0.25453,0.51338 0.17747,0.59045 -0.0771,0.0771 -1.91833,0.26789 -4.09169,0.42405 -2.17336,0.15616 -4.64482,0.39125 -5.49214,0.52242 -1.49722,0.23178 -1.57705,0.21286 -2.8362,-0.67217 -0.71259,-0.50087 -2.10293,-1.46226 -3.08963,-2.13643 -0.9867,-0.67416 -1.85354,-1.302833 -1.9263,-1.397053 -0.0728,-0.0942 -1.14432,-0.85381 -2.38125,-1.68799 -1.23693,-0.83417 -3.26099,-2.22441 -4.49792,-3.08942 -4.41724,-3.08908 -6.9308,-4.77816 -7.11046,-4.77816 -0.10036,0 -0.0371,1.87524 0.14048,4.16719 0.17762,2.29195 0.33391,4.40531 0.34732,4.69635 0.022,0.47891 0.82343,1.417703 4.74301,5.556263 0.6891,0.72761 3.02277,3.22792 5.18593,5.55625 2.16315,2.32834 4.71518,5.05209 5.67118,6.0528 0.95599,1.0007 1.87091,1.95838 2.03316,2.12817 0.30724,0.32153 1.05332,12.25476 0.78308,12.52498 -0.0805,0.0805 -0.65364,-0.0625 -1.27367,-0.31782 -1.27856,-0.52644 -2.0089,-0.82452 -7.27888,-2.97092 -2.29086,-0.93303 -3.77031,-1.67908 -3.77031,-1.90122 0,-0.42643 -5.8639,-12.25383 -6.00524,-12.11249 -0.0523,0.0523 0.0255,1.86777 0.17285,4.03435 0.14737,2.16658 0.26979,5.0838 0.27204,6.48271 l 0.004,2.54348 -2.97656,3.56262 c -1.63711,1.95942 -3.57187,4.35401 -4.29948,5.32127 -0.7276,0.96729 -1.39826001,1.76165 -1.49035001,1.76528 -0.0921,0.004 -1.16365,-1.25807 -2.38124999,-2.80379 z m 4.71977,-0.80143 c 6.30851,-7.81116 5.89863,-7.18907 5.89944,-8.95397 5.3e-4,-0.87419 -0.12788,-3.73256 -0.28506,-6.35193 -0.49886,-8.31324 -0.70321,-8.3229 3.55004,0.16795 4.07496,8.13491 3.38698,7.28716 7.05304,8.69117 0.65484,0.2508 2.59169,1.02701 4.3041,1.7249 1.71241,0.69789 3.18194,1.20044 3.26562,1.11675 0.0837,-0.0837 0.0221,-2.61744 -0.13687,-5.63056 l -0.28902,-5.4784 -3.10889,-3.33632 c -1.7099,-1.83498 -3.22796,-3.46769 -3.37348,-3.62825 -1.67401,-1.84706 -7.38064,-7.88857 -9.15428,-9.69148 l -2.27512,-2.31265 -0.30725,-4.569903 c -0.37267,-5.54294 -0.37533,-6.0251 -0.0332,-6.0251 0.14777,0 2.02301,1.22175 4.16718,2.71501 2.14418,1.49325 4.19616,2.92027 4.55996,3.17115 0.3638,0.25089 2.09021,1.45627 3.83646,2.67862 1.74625,1.22235 4.30711,3.000473 5.6908,3.951353 l 2.51579,1.72889 4.76025,-0.5149 c 2.61813,-0.28319 4.90416,-0.56567 5.08007,-0.62772 0.31924,-0.11262 -0.0488,-0.84051 -3.41455,-6.752403 -1.48793,-2.61354 -2.04012,-3.09733 -4.97507,-4.35878 -0.50932,-0.21891 -1.10464,-0.52075 -1.32292,-0.67077 -0.21828,-0.15001 -0.81359,-0.4592 -1.32291,-0.68708 -1.51546,-0.67805 -10.68253,-5.14332 -11.1125,-5.41289 -0.21828,-0.13685 -0.635,-0.35364 -0.92605,-0.48174 -0.29104,-0.1281 -2.28533,-1.07568 -4.43177,-2.10574 l -3.9026,-1.87283 v -1.57792 -1.57792 l 1.38906,-0.76964 c 0.76399,-0.4233 2.69875,-1.52185 4.29948,-2.44121 1.60073,-0.91937 3.26761,-1.87556 3.70417,-2.12488 1.57376,-0.89876 9.54594,-5.4842 10.45104,-6.01123 7.77137,-4.52518 12.99123,-7.4782 13.21875,-7.4782 0.44651,0 3.19746,1.61853 3.07842,1.8112 -0.13022,0.21074 -1.22719,10.77825 -2.14653,20.67838 -0.85982,9.25919 -0.82466,8.60504 -0.48538,9.0289 0.16016,0.2001 1.57047,2.26881 3.134,4.59714 1.56354,2.32834 2.89092,4.28568 2.94973,4.34967 0.14407,0.15673 0.78961,-0.77593 2.18507,-3.1569 0.64035,-1.09258 1.24236,-2.04605 1.33779,-2.11881 0.25964,-0.19796 2.10358,-3.63934 2.00666,-3.74509 -0.0461,-0.0503 -0.28338,-2.53215 -0.52738,-5.51532 -0.24401,-2.98318 -0.73851,-8.43375 -1.09888,-12.11238 -0.36038,-3.67863 -0.57899,-6.81178 -0.48581,-6.96255 0.11067,-0.17905 0.3209,-0.14445 0.60618,0.0998 0.24021,0.20564 0.61535,0.45665 0.83363,0.5578 0.21828,0.10115 1.13574,0.62526 2.03881,1.16469 0.90306,0.53944 2.65004,1.54756 3.88217,2.24028 1.93931,1.0903 2.26299,1.37465 2.4095,2.11667 0.18693,0.94677 1.3503,5.23494 2.52953,9.32384 0.41968,1.45521 1.13943,4.01505 1.59944,5.68854 2.43853,8.87119 2.32509,8.64272 5.135339,10.34233 0.727604,0.44005 1.823262,1.12077 2.434794,1.51273 3.187909,2.043273 4.872696,3.018373 4.998249,2.892813 0.212058,-0.21206 0.581938,-3.092733 0.91368,-7.115823 0.234773,-2.84713 0.227793,-3.74427 -0.03294,-4.23334 -0.181964,-0.34132 -1.82935,-2.86627 -3.660857,-5.61099 -1.831506,-2.74472 -3.606654,-5.40495 -3.944773,-5.91162 -0.338122,-0.50668 -0.555607,-0.98038 -0.483301,-1.05269 0.0723,-0.0723 0.765664,0.23274 1.540803,0.67786 0.77514,0.44513 2.064187,1.16909 2.864551,1.6088 1.491737,0.81956 2.350522,1.3106 5.844088,3.34156 2.199687,1.27877 2.55906,1.32979 5.532996,0.78544 1.091406,-0.19977 3.413124,-0.61658 5.159374,-0.92624 3.910886,-0.69352 4.101042,-0.75064 4.101042,-1.23199 0,-0.21316 -0.363723,-1.366 -0.808276,-2.56185 -0.444526,-1.19586 -1.10744,-3.00772 -1.473147,-4.02636 -1.98176,-5.52031 -1.612609,-4.98147 -4.597743,-6.71151 -0.945886,-0.54819 -3.065989,-1.79244 -4.711343,-2.765 -1.645351,-0.97256 -3.055721,-1.76828 -3.134156,-1.76828 -0.27844,0 -1.679501,-1.09796 -1.679501,-1.31617 0,-0.12198 0.208359,-0.1736 0.463021,-0.1147 0.254661,0.0589 3.71517,0.28639 7.690021,0.50553 l 7.227001,0.39843 1.107387,-0.68221 c 1.24132,-0.76474 1.627214,-1.03917 5.274972,-3.75129 1.41859,-1.05473 2.57926,-2.01012 2.57926,-2.1231 0,-0.11297 -1.10132,-0.76852 -2.447392,-1.45677 -1.346068,-0.68825 -3.459427,-1.78535 -4.696354,-2.43801 -3.042893,-1.60556 -3.281045,-1.66722 -5.00044,-1.2947 -2.249522,0.48739 -19.175168,4.83207 -21.545877,5.53066 l -1.278608,0.37677 -1.89639,-1.08987 c -3.06844,-1.76346 -6.07587,-3.45323 -6.85733,-3.85288 -0.40018,-0.20467 -0.7276,-0.46483 -0.7276,-0.57815 0,-0.11332 0.8632,-0.60069 1.91823,-1.08303 5.37958,-2.45947 17.472792,-8.08675 18.950014,-8.81791 1.760101,-0.87118 2.700533,-1.9247 3.764079,-4.21674 0.284728,-0.61361 1.050184,-2.10292 1.701014,-3.30959 0.650827,-1.20666 1.183325,-2.23637 1.183325,-2.28825 0,-0.14632 -3.17803,-0.42327 -7.540625,-0.65712 l -3.96875,-0.21273 -3.042708,2.14845 c -1.67349,1.18165 -3.340369,2.35368 -3.704169,2.60451 -1.38153,0.95253 -5.08783,3.58042 -7.56179,5.36157 -3.83489,2.76097 -6.74375,4.82388 -7.78792,5.52306 -0.51146,0.34248 -1.09159,0.81747 -1.28917,1.05554 -0.49521,0.59669 -0.63338,0.56457 -2.28289,-0.53064 l -1.45114,-0.9635 5.3e-4,-18.94639 5.3e-4,-18.94639563 1.45444,-0.75996997 c 1.36987,-0.71578 1.48906,-0.73513 2.04989,-0.33292 2.01309,1.44372997 20.90645,14.1119756 22.922356,15.3697356 l 1.16024,0.7239 5.220216,-0.19061 5.220218,-0.19062 -1.845548,-4.0024703 c -1.01505,-2.20135 -1.971733,-4.31437 -2.125967,-4.69558 -0.205065,-0.50687 -0.854887,-0.96033 -2.418244,-1.68752 -1.175803,-0.54692 -3.387979,-1.5883 -4.915947,-2.314166 -1.527969,-0.72586933 -3.4925,-1.64749933 -4.365625,-2.04806933 -1.550179,-0.71118997 -4.474049,-2.07967997 -8.202079,-3.83890997 -1.01865,-0.48069 -2.11998,-0.9536 -2.4474,-1.05091 -1.26689,-0.37651 -0.52982,-0.96501 4.13049,-3.29789 l 4.7258,-2.3656704 1.425762,0.49171 c 0.784167,0.27044 3.568885,0.9814804 6.18826,1.5800904 2.619375,0.5986 6.19125,1.42556 7.9375,1.83768 1.74625,0.41211 4.650174,1.08948 6.453163,1.50526 l 3.278159,0.75596 4.843171,-2.50701 c 2.663746,-1.37886 4.871426,-2.6260804 4.905926,-2.7716004 0.0545,-0.2299 -1.99009,-1.9016 -6.070807,-4.96358 -0.628359,-0.47149 -1.559904,-1.20475 -2.0701,-1.62946 l -0.927629,-0.77221 -7.05803,0.4568 c -3.881911,0.25125 -7.504504,0.52466 -8.050207,0.60759 -0.631436,0.096 -0.992188,0.046 -0.992188,-0.13735 0,-0.15847 2.73535,-1.67015 6.078556,-3.35929 3.343204,-1.68913 6.322266,-3.27133 6.62014,-3.51599 0.297873,-0.24467 0.904539,-1.39734 1.348139,-2.56151 2.086504,-5.47585 2.456153,-6.46379 3.019293,-8.06979 0.331681,-0.94589 0.586316,-1.73957 0.565864,-1.76373 -0.07125,-0.0842 -9.310727,-1.64425 -11.136844,-1.88045 -1.265103,-0.16364 -2.008423,-0.14685 -2.38125,0.0538 -0.602229,0.32408 -5.620978,3.58387 -9.231543,5.99611 -2.138129,1.42862 -2.819656,1.77669 -2.819656,1.44014 0,-0.0676 1.979189,-3.1087 4.3982,-6.758 l 4.398201,-6.63511 -0.307989,-2.56856 c -0.441282,-3.68023 -1.092631,-8.3141 -1.241975,-8.83578 -0.132511,-0.46288 -1.54849,0.33828 -7.041877,3.98429 -1.124421,0.74629 -2.139239,1.35689 -2.255169,1.35689 -0.11592,0 -0.72803,1.69664 -1.36026,3.77031 -0.63222,2.07368 -1.47586,4.84188 -1.87476,6.15157 -0.3989,1.30968 -1.09046,3.57187 -1.53681,5.02708 -2.13399,6.95728 -2.43687,8.01413 -2.5984,9.06666 -0.16975,1.1061 -0.2469,1.1785 -3.77675,3.54431 -1.9819,1.32833 -3.8874,2.63591 -4.23445,2.90573 -0.34704,0.269821 -0.86839,0.49059 -1.15856,0.49059 -0.47482,0 -0.51202,-0.125679 -0.3721,-1.25677 0.20088,-1.62392 0.8106,-8.47912 1.51672,-17.05279 l 0.56005,-6.80019 -2.97584,-4.15186 -2.97585,-4.15186 -0.55358,0.74796 c -0.30448,0.41138 -0.85125,1.26007 -1.21505,1.88598 -0.3638,0.62591 -1.37575,2.36025 -2.24879,3.85409 -0.87303,1.49383 -1.5719,2.7756 -1.55304,2.84836 0.0189,0.0728 0.23594,3.5851 0.4824,7.80521 0.24647,4.2201 0.67744,10.6046 0.95773,14.18778 0.28029,3.58318 0.5092,6.6788 0.50869,6.87917 -5.3e-4,0.20036 -0.63555,0.7066 -1.41121,1.12496 l -1.41028,0.76067 -1.16848,-0.65466 c -1.636,-0.9166 -5.73721,-3.33592 -6.91749,-4.08066 -0.54258,-0.34236 -1.05115,-0.62247 -1.13015,-0.62247 -0.079,0 -0.58757,-0.28068 -1.13015,-0.62372 -0.95706,-0.60508 -5.06141,-3.01799 -6.93964,-4.07974 -0.50933,-0.28792 -1.64042,-0.93629 -2.51355,-1.44082 -0.87312,-0.50453 -4.02828,-2.31712 -7.01145,-4.02799 -2.98318,-1.71087 -5.57279,-3.23221 -5.75469,-3.38076 -0.1999,-0.16325 -0.33073,-0.9182 -0.33073,-1.90843 v -1.63832 l 2.97656,-1.34858 c 1.63711,-0.74172 3.74622,-1.68654 4.68691,-2.09959 0.94069,-0.41306 5.64366,-2.55754 10.45104,-4.76552 l 8.7407,-4.01451 2.43062,-4.84903 c 1.33684,-2.66697 2.43817,-5.03894 2.44739,-5.27104 0.0143,-0.35843 -0.5276,-0.44811 -3.59693,-0.59531 -5.9065,-0.28327 -6.23926,-0.260211 -7.25775,0.5029 -0.49637,0.37192 -2.50984,1.79389 -4.47437,3.15995 -4.93754,3.43336 -7.35367,5.13631 -11.57711,8.15986 l -3.63644,2.60332 -0.0715,-5.60429 -0.0715,-5.60428 8.83251,-8.955673 8.8325,-8.955672 0.17522,-3.918358 c 0.0964,-2.155097 0.24866,-4.858234 0.33843,-6.00697 l 0.16323,-2.088613 -0.7651,0.186151 c -0.42079,0.102383 -2.43196,0.945692 -4.46925,1.874022 -2.03729,0.92833 -4.02658,1.809356 -4.42065,1.957832 -0.60012,0.226113 -1.28228,1.409663 -4.20026,7.287368 -1.91608,3.859575 -3.58796,6.953025 -3.71529,6.87433 -0.12733,-0.0787 -0.23151,-3.325661 -0.23151,-7.215478 v -7.072394 l -3.9825,-4.752094 c -2.19038,-2.613652 -4.08722001,-4.789062 -4.21521001,-4.834245 -0.21632,-0.07637 -3.32492029,3.432488 -6.70877029,7.572574 l -1.44669,1.769993 -0.19428,7.342188 c -0.10686,4.038203 -0.26716,7.336387 -0.35623,7.329299 -0.0891,-0.0071 -1.69896,-3.152896 -3.5775397,-6.990686 l -3.41559,-6.977795 -1.87608,-0.84506 c -4.17803,-1.881963 -7.82663,-3.429821 -8.08474,-3.429821 -0.15402,0 -0.2725,0.607193 -0.27106,1.389063 0.005,2.534031 0.54113,10.325722 0.73389,10.659149 0.10427,0.180377 3.99959,4.224542 8.65626,8.987028 l 8.4666697,8.659072 0.16882,2.4169 c 0.2323,3.32566 0.2659,8.8992 0.0537,8.8992 -0.0959,0 -0.78053,-0.45 -1.52136,-1 -0.74083,-0.55 -1.6446097,-1.20119 -2.0084197,-1.44708 -0.3638,-0.24589 -1.1377,-0.797 -1.71979,-1.22468 -0.58208,-0.42768 -2.01083,-1.44489 -3.175,-2.26046 -1.16416,-0.81557 -3.1287,-2.19778 -4.36562,-3.07156 -1.80498,-1.27507 -4.93787,-3.44722 -7.76534,-5.38399 -0.41794,-0.286282 -10.22633,0.0713 -10.22633,0.3728 0,0.11833 0.66038,1.56394 1.46752,3.21246 0.80714,1.64852 1.90846,3.90317 2.4474,5.01033 l 0.97987,2.01303 12.54531,5.7645 c 6.89992,3.17048 13.0018797,5.94385 13.5598997,6.16305 1.01422,0.3984 1.01458,0.39909 1.01458,1.9356 0,1.6421 -0.29758,2.12794 -1.77899,2.90441 -0.6427,0.33687 -4.4742297,2.52181 -8.6720497,4.94525 -0.87312,0.50407 -2.00422,1.15415 -2.51354,1.44463 -0.50932,0.29048 -3.54542,2.04775 -6.74687,3.90505 -3.20146,1.85729 -6.23756,3.61168 -6.74688,3.89864 -0.50932,0.28696 -2.14924,1.25356 -3.64427,2.14801 -1.49503,0.89444 -2.82963,1.62626 -2.96578,1.62626 -0.13615,0 -0.78818,-0.32655 -1.44896,-0.72567 -0.78284,-0.47286 -1.20213,-0.91071 -1.20347,-1.25678 -10e-4,-0.2921 0.17353,-2.97187 0.38815,-5.95505 0.21462,-2.98317 0.65083,-9.35302 0.96935,-14.1552 l 0.57913,-8.73125 -2.35635,-3.96875 c -2.60655,-4.39016 -3.21551,-5.31582 -3.38368,-5.14342 -0.0624,0.064 -1.4083,1.92984 -2.99087,4.14634 l -2.87742,4.03001 0.46067,5.89187 c 0.25337,3.24052 0.70716,8.57077 1.00841,11.84499 0.30126,3.27422 0.54414,6.28054 0.53975,6.68073 -0.01,0.90181 -0.44027,0.92695 -1.62251,0.0948 -0.49446,-0.34805 -2.38917,-1.61872 -4.21045,-2.82371 l -3.31142,-2.1909 -0.47367,-2.00494 c -0.26052,-1.10271 -0.75166,-2.8979 -1.09141,-3.98931 -1.65071,-5.30257 -3.03979,-9.83179 -4.8112,-15.68735 -0.89469,-2.95747 -1.12388,-3.44597 -1.81754,-3.87378 -0.43656,-0.26925 -2.57969,-1.63212 -4.7625,-3.02858 l -3.96875,-2.53903 -0.44316,2.57635 c -0.75245,4.37446 -1.12463,8.99797 -0.78442,9.74465 0.16375,0.3594 2.08453,3.33931 4.26839,6.62203 3.64511,5.47924 4.22239,6.4503 3.83462,6.4503 -0.0748,0 -2.55584,-1.59432 -5.51339,-3.54292 -6.98443,-4.60174 -6.48146,-4.37212 -8.90267,-4.06441 -2.21033,0.28091 -10.661714,1.79088 -10.811064,1.93156 -0.0985,0.0928 0.5074,1.88688 1.64888,4.88202 3.221644,8.45333 1.966244,7.01964 9.383124,10.71562 6.16758,3.07343 7.66619,4.1122 5.40263,3.74488 -0.54505,-0.0885 -4.11378,-0.35877 -7.9305,-0.6007 -5.93571,-0.37625 -7.013554,-0.3867 -7.451454,-0.0722 -1.33303,0.95729 -7.890505,6.08249 -8.302655,6.48922 -0.25644,0.25305 -0.3755,0.5489 -0.26459,0.65743 0.39801,0.3894504 9.421375,4.9949504 9.786409,4.9949504 0.36926,0 3.81609,-0.76636 8.9361,-1.98685 1.45521,-0.34688 4.4913,-1.05798 6.74687,-1.58023 6.52311,-1.5103204 8.5773,-2.0413304 8.90788,-2.3026904 0.37541,-0.2968 10.22085,4.4429804 10.08368,4.8544704 -0.0496,0.1489 -1.75342,1.03852 -3.78621,1.97693 -2.03278,0.93842 -4.52941,2.10894 -5.54805,2.60117 -1.01865,0.49222 -3.04271,1.45141997 -4.49792,2.13153997 -4.03797,1.88723533 -7.0498,3.31047533 -8.02502,3.79220533 -0.4847,0.23943 -1.03932,0.79252 -1.2325,1.22908 -0.19318,0.43656 -1.13567,2.52015 -2.09442,4.6302103 l -1.74319,3.83645 2.57882,0.16736 c 1.41834,0.0921 3.75897,0.18135 5.2014,0.19844 2.32723,0.0276 2.74439,-0.0407 3.70416,-0.60618 0.96653,-0.56947 12.4092,-8.1985403 20.63146,-13.75542563 l 3.09182,-2.08955997 1.24686,0.68566 1.24686,0.68565997 0.0679,19.13428563 0.0678,19.1343 -1.45928,0.87283 -1.45928,0.87283 -2.08092,-1.5376 c -2.76531,-2.04329 -4.34528,-3.17182 -16.7845,-11.98864 -5.67077,-4.01939 -4.68172,-3.66005 -9.44027,-3.42976 -5.91335,0.28618 -7.14375,0.46933 -7.14375,1.06339 0,0.26568 0.11154,0.552 0.24788,0.63626 0.13633,0.0843 0.80148,1.25089 1.47811,2.59252 2.39774,4.7543 2.84621,5.32213 4.97351,6.29718 1.0447,0.47884 3.2432,1.5046 4.88555,2.27947 1.64236,0.77487 3.02914,1.40886 3.08175,1.40886 0.0526,0 1.4473,0.64051 3.09932,1.42336 3.47182,1.64519 5.76546,2.70378 8.0969,3.73694 0.9095,0.40304 1.65364,0.8108 1.65364,0.90613 0,0.0953 -0.62507,0.50022 -1.38906,0.89974 -1.73234,0.90591 -5.20948,2.8721 -6.90233,3.903 l -1.27994,0.77944 -1.76277,-0.54884 c -0.96953,-0.30187 -2.23902,-0.64702 -2.8211,-0.767 -0.58209,-0.11999 -2.72521,-0.65923 -4.7625,-1.19833 -2.0373,-0.5391 -6.26279,-1.62143 -9.38999,-2.40519 l -5.68583,-1.42502 -2.780844,1.40542 c -5.34519,2.70142 -7.685275,3.9398 -7.802145,4.12891 -0.0648,0.10482 1.51476,1.37904 3.510095,2.83162 5.84754,4.25692 5.09255,3.88121 7.418394,3.69166 1.11667,-0.091 4.41157,-0.28741 7.32198,-0.43645 2.91042,-0.14903 5.51412,-0.33977 5.78599,-0.42386 0.86572,-0.26776 0.34536,0.45966 -0.76978,1.07611 -0.5761,0.31847 -1.52371,0.86908 -2.10579,1.22358 -0.58208,0.35451 -1.38663,0.8234 -1.78787,1.04198 -3.39525,1.84959 -7.30697,4.32744 -7.42259,4.70177 -0.0778,0.25199 -0.5734,1.58925 -1.10125,2.9717 -0.52785,1.38244 -1.18404,3.16838 -1.458194,3.96875 -0.27415,0.80036 -0.75828,2.15397 -1.07585,3.00802 -0.68778,1.84969 -0.70003,1.83643 2.095144,2.26907 1.11065,0.17191 3.53818,0.6027 5.39453,0.95732 4.03087,0.77001 4.95045,0.79693 5.78342,0.16931 0.34704,-0.26148 1.88115,-1.17127 3.40912,-2.02174 1.52797,-0.85046 3.25437,-1.81214 3.83646,-2.13705 4.11229,-2.29542 4.19124,-2.33247 4.02014,-1.88659 -0.0944,0.24597 -2.01932,3.2294 -4.27763,6.62984 -3.98354,5.99819 -4.10234,6.21702 -3.98296,7.33627 0.0677,0.63452 0.32503,3.08844 0.57187,5.45315 0.27599,2.64384 0.55956,4.299493 0.7364,4.299493 0.15817,0 1.36003,-0.68461 2.6708,-1.521373 1.31076,-0.83674 2.57754,-1.64041 2.81506,-1.78593 0.23751,-0.14552 1.33578,-0.8599 2.44058,-1.5875 2.29651,-1.51244 2.1069,-1.12186 4.11033,-8.46667 0.59541,-2.18281 1.3787,-4.98078 1.74064,-6.21771 0.36195,-1.23693 1.02442,-3.61817 1.47215,-5.29166 1.728,-6.4587 1.1799,-5.54314 4.46014,-7.45016 4.04876,-2.35381 4.25059,-2.47308 5.54868,-3.27892 l 1.15955,-0.71982 -0.13771,2.21872 c -0.0757,1.22029 -0.38422,4.71903 -0.68551,7.77497 -0.30129,3.05593 -0.72224,7.72922 -0.93544,10.38508 l -0.38764,4.82884 1.05295,1.91804 c 0.57913,1.05492 1.48538,2.57288 2.0139,3.37325 0.52853,0.80036 1.25866,1.91071 1.62252,2.46744 l 0.66156,1.01225 0.47224,-0.61537 c 0.25973,-0.33845 1.73307,-2.48322 3.27408,-4.76616 l 2.80183,-4.15078 -0.40198,-4.18359 c -0.22109,-2.30097 -0.58492,-6.08859 -0.80851,-8.41692 -1.24296,-12.94367 -1.5131,-15.63738 -1.63001,-16.25409 -0.11622,-0.61308 0.039,-0.7622 1.59328,-1.53088 0.94712,-0.4684 1.78767,-0.74545 1.86788,-0.61565 0.0802,0.12979 1.48393,1.00802 3.11937,1.95161 1.63544,0.9436 4.04508,2.34141 5.35477,3.10625 1.30969,0.76483 3.57187,2.06794 5.02708,2.8958 1.45521,0.82786 3.41974,1.9542 4.36563,2.50297 1.9345,1.12235 1.90698,1.1066 8.98947,5.14456 2.8341597,1.61585 5.2827397,3.08534 5.4412897,3.26554 0.16695,0.18976 0.2396,0.94002 0.17263,1.78285 l -0.11562,1.45521 -1.75378,0.82714 c -2.7478197,1.29596 -12.2856197,5.91162 -12.8001397,6.19441 -0.89593,0.49242 -1.4345,0.76173 -6.58108,3.29078 -5.02555,2.46957 -5.21429,2.59117 -5.88631,3.79244 -0.38185,0.68258 -1.11177,1.95544 -1.62205,2.82856 -0.97675,1.67133 -2.77775,5.074293 -2.77775,5.248533 0,0.0563 0.74414,0.18228 1.65365,0.27995 0.9095,0.0977 3.17824,0.33994 5.04164,0.53837 l 3.388,0.36077 3.31014,-2.28776 c 4.27096,-2.951833 12.2074,-8.463913 15.0736997,-10.469123 1.53642,-1.07486 2.32512,-1.4812 2.51207,-1.29426 0.18694,0.18695 0.18404,1.34341 -0.009,3.68343 -0.15495,1.87601 -0.35065,4.27413 -0.43488,5.32915 -0.0936,1.1729 -0.27062,1.918243 -0.4555,1.918243 -0.1663,0 -0.72169,0.45515 -1.2342,1.01144 -0.5125,0.55629 -3.9083897,4.20798 -7.5464097,8.11487 -3.63802,3.90689 -7.10275,7.62928 -7.6994,8.27197 l -1.08481,1.16853 -0.17089,3.35045 c -0.23117,4.53242 -0.21687,7.71607 0.0347,7.71607 0.26828,0 4.54583,-1.71825 6.32437,-2.54042 0.75497,-0.34901 1.50307,-0.63458 1.66244,-0.63458 0.15937,0 0.86478,-0.29138 1.56758,-0.64751 l 1.27783,-0.64752 3.48547,-7.0254 c 1.9170197,-3.86397 3.6139397,-7.0254 3.7709597,-7.0254 0.18737,0 0.23302,0.47734 0.13285,1.38906 -0.0839,0.76399 -0.21911,3.175 -0.30037,5.35782 -0.0813,2.18281 -0.21335,4.8138 -0.29353,5.84664 l -0.14579,1.87789 1.39669,1.82629 c 1.49276,1.95188 1.48665,1.94413 2.48176,3.14918 0.3605,0.43656 1.45949,1.76895 2.4421903,2.96087 0.98270999,1.19192 1.93028999,2.17419 2.10573999,2.18281 0.17545,0.009 1.24701001,-1.13337 2.38125001,-2.53778 z M -8.1452713,58.317017 c -1.76274,-1.15059 -2.7196897,-1.72988 -7.5406297,-4.56469 -2.54661,-1.49746 -4.95281,-2.94448 -5.3471,-3.21559 -0.39429,-0.27112 -0.7855,-0.49294 -0.86936,-0.49294 -0.0839,0 -1.42814,-0.75756 -2.98728,-1.68345 -1.55914,-0.92591 -3.71218,-2.1896 -4.78454,-2.8082 l -1.94973,-1.12475 1.15598,-0.72254 c 4.38715,-2.74217 6.32896,-3.76905 6.64345,-3.5132 0.60736,0.49412 13.80067,8.20664 17.1182197,10.00694 l 0.64526,0.35016 -0.0726,4.04279 c -0.0399,2.22353 -0.12897,4.13398 -0.19786,4.24543 -0.21197,0.34298 -0.71085,0.19996 -1.8138,-0.51996 z m 1.45116,-4.09993 c 0.004,-3.21019 -0.0237,-3.38429 -0.59127,-3.73057 -0.32742,-0.19977 -1.7264,-1.01666 -3.1088497,-1.8153 -1.38245,-0.79864 -3.64464,-2.11422 -5.02708,-2.92349 -1.38245,-0.80928 -2.93026,-1.7074 -3.43959,-1.99584 -0.50932,-0.28843 -1.8957,-1.07435 -3.08084,-1.74647 -1.18514,-0.67212 -2.2978,-1.22204 -2.47258,-1.22204 -0.17477,0 -1.38758,0.65485 -2.69512,1.45521 -1.30753,0.80037 -2.47225,1.45521 -2.58825,1.45521 -0.116,0 -0.34189,0.15782 -0.50197,0.3507 -0.2304,0.27762 0.57614,0.86357 3.87021,2.81174 2.28869,1.35357 4.57798,2.72957 5.0873,3.05778 0.50933,0.32821 1.73615,1.05723 2.72628,1.62003 0.99012,0.56281 2.41887,1.40459 3.175,1.87063 0.75612,0.46603 2.02961,1.21012 2.82997,1.65354 0.80037,0.44341 2.34818,1.32878 3.4395897,1.96748 1.35436,0.79259 2.04609,1.06563 2.17876,0.86 0.10691,-0.1657 0.19621,-1.81658 0.19844,-3.66861 z m 13.8758703,4.47208 c -0.074,-0.19276 -0.2197,-2.05512 -0.32386,-4.13857 l -0.18937,-3.78811 0.92747,-0.58513 c 0.51011,-0.32183 1.45961,-0.85646 2.10999,-1.18808 0.65037,-0.33162 1.48381,-0.8087 1.85208,-1.06018 0.36826,-0.25147 1.50301,-0.93499 2.52166,-1.51893 1.01864,-0.58394 3.91314,-2.2764 6.43221,-3.76103 l 4.58013,-2.69931 0.71154,0.48292 c 0.39134,0.26561 0.8306,0.54246 0.97612,0.61522 1.08543,0.54271 5.42396,3.27596 5.42396,3.41706 0,0.0973 -0.62508,0.50311 -1.38907,0.90186 -0.76398,0.39875 -2.10343,1.1521 -2.97656,1.67412 -0.87312,0.52202 -2.00422,1.18483 -2.51354,1.47292 -1.55388,0.87892 -2.73344,1.57579 -3.70417,2.18838 -0.96841,0.61113 -5.1149,3.06575 -6.48229,3.83736 -0.43656,0.24635 -2.30661,1.35962 -4.15566,2.47393 -1.84905,1.11432 -3.43037,2.02603 -3.51404,2.02603 -0.0837,0 -0.21263,-0.15771 -0.2866,-0.35046 z m 3.32609,-2.03079 c 1.47893,-0.87312 2.73087,-1.5875 2.78211,-1.5875 0.0984,0 2.27323,-1.28316 3.83248,-2.2612 0.50932,-0.31947 3.00963,-1.80454 5.55625,-3.30016 6.57481,-3.86136 8.46792,-5.03405 8.4578,-5.2392 -0.0117,-0.23667 -5.28624,-3.33082 -5.85833,-3.4366 -0.24378,-0.0451 -0.92602,0.22282 -1.5161,0.59531 -0.59007,0.3725 -1.14657,0.67727 -1.23667,0.67727 -0.0901,0 -0.83661,0.40631 -1.65891,0.90292 -1.61154,0.97326 -9.85103,5.80757 -12.17613,7.14404 l -1.42063,0.81658 0.16386,2.35575 c 0.0901,1.29566 0.16386,2.93277 0.16386,3.63802 0,0.70525 0.0498,1.28227 0.11073,1.28227 0.0609,0 1.32076,-0.71437 2.79968,-1.5875 z M -6.0418313,41.612257 c -0.13825,-0.12619 -2.38992,-1.32316 -5.0037297,-2.65992 -4.82191,-2.46604 -5.43409,-2.82771 -5.43409,-3.21042 0,-0.11778 1.0418,-0.95795 2.31511,-1.86702 1.2733,-0.90907 3.6521,-2.64359 5.2862197,-3.85448 1.63411,-1.21089 3.07376,-2.20162 3.19922,-2.20162 0.20767,0 0.57654,7.81415 0.57654,12.21338 0,1.78488 -0.25149,2.20794 -0.93927,1.58008 z m 0.38138,-5.26065 c -0.0158,-2.58299 -0.10509,-5.38926 -0.19843,-6.23616 l -0.16972,-1.5398 -1.5875,1.13399 c -0.87313,0.62369 -1.70657,1.22551 -1.85209,1.33738 -0.14552,0.11186 -0.6217697,0.48053 -1.0583297,0.81927 -0.43656,0.33873 -1.78184,1.30533 -2.9895,2.14799 -1.20766,0.84266 -2.15617,1.65084 -2.1078,1.79595 0.0826,0.24794 9.3660197,5.20205 9.7936497,5.22643 0.10914,0.006 0.18552,-2.10205 0.16972,-4.68505 z m 11.6437903,5.15938 c -0.0898,-1.11706 0.0795,-12.84955 0.19092,-13.22917 0.0748,-0.25466 0.21719,-0.46119 0.31653,-0.45895 0.15072,0.003 5.68658,3.97015 9.04415,6.48064 0.50932,0.38083 1.1385,0.83514 1.39817,1.00957 0.39334,0.26423 0.41542,0.38796 0.13229,0.7414 -0.27412,0.34221 -10.57678,5.78724 -10.95015,5.78724 -0.0579,0 -0.11728,-0.14883 -0.13191,-0.33073 z m 5.81695,-3.10653 4.83037,-2.51121 -0.9146,-0.79608 c -0.50302,-0.43784 -1.3151,-1.07111 -1.80463,-1.40726 -0.48952,-0.33616 -2.25925,-1.60877 -3.93274,-2.82803 -1.67349,-1.21926 -3.11686,-2.13485 -3.20748,-2.03464 -0.0906,0.1002 -0.24163,2.90001 -0.33557,6.22179 -0.14032,4.96191 -0.10789,6.02417 0.18175,5.95312 0.1939,-0.0476 2.52621,-1.21652 5.1829,-2.59769 z m -49.82597,-5.59959 c -0.26491,-0.8025 -0.29614,-28.5293003 -0.0322,-28.6172703 0.14822,-0.0494 1.83847,0.69326 3.7561,1.65037 l 3.48662,1.7402 0.0637,10.3849003 c 0.035,5.71169 0.0756,10.52591 0.0902,10.69825 0.0146,0.17235 -0.68792,0.70139 -1.56104,1.17565 -2.70013,1.46664 -3.93523,2.1726 -4.82731,2.7592 -0.66225,0.43548 -0.88541,0.48319 -0.97602,0.2087 z m 2.95543,-1.90321 c 1.12978,-0.63276 2.44034,-1.3769 2.91237,-1.65364 l 0.85822,-0.50318 0.002,-10.23459 0.002,-10.2345803 -0.72761,-0.51432 c -0.89338,-0.6315 -5.39932,-2.96018 -5.72914,-2.96083 -0.14069,-2.6e-4 -0.16882,3.02033 -0.0684,7.3417203 0.0939,4.0382 0.17167,10.16992 0.17289,13.62604 10e-4,3.95315 0.099,6.28385 0.26318,6.28385 0.14353,0 1.18533,-0.51771 2.31511,-1.15047 z m 72.81793,1.63196 c -1.45305,-0.88611 -3.44527,-2.00692 -4.94868,-2.78408 l -1.38906,-0.71806 V 18.364427 7.6973667 l 0.65987,-0.25089 c 0.36294,-0.13798 1.97841,-0.97048 3.58993,-1.84999 1.61153,-0.8795 3.05713,-1.52057 3.21244,-1.42458 0.19836,0.1226 0.22474,4.43382 0.0887,14.4903903 -0.10655,7.87373 -0.2175,14.34123 -0.24654,14.37223 -0.029,0.031 -0.46402,-0.19442 -0.96661,-0.50091 z m 0.66156,-5.57472 c 0.0979,-2.80127 0.14065,-8.94293 0.0951,-13.64814 l -0.0829,-8.5549003 -2.64583,1.35794 c -1.45521,0.74686 -2.86765,1.52391 -3.13876,1.72678 -0.46137,0.34522 -0.50196,1.01811 -0.63396,10.5096703 l -0.14104,10.14083 1.14293,0.75635 c 0.62861,0.41599 1.80686,1.11418 2.61834,1.55153 0.81147,0.43734 1.58852,0.89822 1.72676,1.02417 0.76773,0.69946 0.88361,0.16741 1.05941,-4.86423 z m -61.65259,-2.8715 c -0.1689,-0.27328 -0.0526,-3.83337 0.32108,-9.8285 0.12127,-1.94555 0.25097,-2.57968 0.52765,-2.57968 0.20178,0 0.99011,0.40338 1.75186,0.89641 1.85477,1.20047 4.84765,3.02325 7.66884,4.67065 1.27331,0.74353 2.31511,1.43907 2.31511,1.54565 0,0.10658 -0.50602,0.41419 -1.12448,0.68358 -2.57598,1.12204 -7.01833,3.10653 -8.00365,3.5754 -1.07419,0.51116 -3.03765,1.32831 -3.1917,1.32831 -0.0464,0 -0.16552,-0.13132 -0.26471,-0.29182 z m 5.83766,-2.61129 c 3.84373,-1.70672 5.74499,-2.69955 5.53089,-2.88824 -0.28362,-0.24996 -8.69399,-5.36819 -9.58845,-5.83515 -0.33988,-0.17745 -0.67748,-0.26311 -0.75023,-0.19037 -0.17877,0.17877 -0.59413,6.39991 -0.60634,9.08155 l -0.01,2.15948 2.05052,-0.86993 c 1.12778,-0.47846 2.64583,-1.13427 3.37344,-1.45734 z m 39.15833,2.12585 c -0.87312,-0.42005 -2.71859,-1.25619 -4.10104,-1.85808 -4.53344,-1.97378 -6.09532,-2.7589 -6.00823,-3.02016 0.0727,-0.21809 3.24253,-2.282 3.50478,-2.282 0.0491,0 1.81109,-1.07157 3.91555,-2.38125 2.10447,-1.30969 4.01688,-2.38125 4.24981,-2.38125 0.35503,0 0.42561,0.37432 0.4365,2.3151 0.007,1.27331 0.11404,3.97415 0.23757,6.00188 0.12352,2.02773 0.16447,3.84343 0.091,4.0349 -0.19037,0.49608 -0.5349,0.43252 -2.32594,-0.42914 z m 1.88667,-2.3316 c -0.0851,-1.41883 -0.22878,-3.97867 -0.31922,-5.68854 -0.0904,-1.70987 -0.23183,-3.10885 -0.3142,-3.10885 -0.24356,0 -3.92945,2.06289 -5.01482,2.80665 -0.55051,0.37724 -1.23905,0.79431 -1.53009,0.92681 -0.98042,0.44635 -3.66638,2.23858 -3.75548,2.50588 -0.0486,0.14573 1.90763,1.14127 4.34712,2.21231 2.43949,1.07103 4.85216,2.15443 5.36148,2.40755 0.50933,0.25311 1.02818,0.47319 1.15302,0.48905 0.12484,0.0158 0.15733,-1.13203 0.0722,-2.55086 z M -6.1095613,8.0870567 c -0.63683,-0.44605 -6.1207297,-3.4896 -8.4989797,-4.7169 -1.99706,-1.03059 -2.4017,-1.30314 -2.39076,-1.61032 0.005,-0.14689 2.08748,-1.57676533 4.62723,-3.1774953 6.0049797,-3.78476 5.8890097,-3.71765 6.0850497,-3.52161 0.0927,0.0927 0.45726,2.5898 0.81024,5.54919997 0.35298,2.95940533 0.71599,5.94628533 0.80667,6.63751533 0.14661,1.11746 0.10898,1.25677 -0.33949,1.25677 -0.27741,0 -0.7724,-0.18773 -1.09996,-0.41716 z m 0.74772,-1.63336 c 0.003,-0.69123 -0.2525,-3.42459 -0.56762,-6.07414533 -0.56162,-4.72232997 -0.58379,-4.81155997 -1.12344,-4.52274997 -0.486,0.2601 -5.9879597,3.79514997 -8.2979697,5.3314993 l -0.85559,0.569036 0.59101,0.45714 c 0.32506,0.25142 0.65897,0.45978 0.74203,0.46302 0.0831,0.003 2.16666,1.13523 4.63021,2.51554 2.4635597,1.38031 4.5684897,2.5114 4.6776297,2.51354 0.10914,0.002 0.20082,-0.56166 0.20374,-1.25288 z m 10.8401903,1.4552 c -10e-4,-0.32742 0.24139,-2.73843 0.53937,-5.35781 0.29798,-2.61936533 0.60529,-5.3875753 0.68291,-6.1515553 0.0968,-0.95238 0.25844,-1.38906 0.51429,-1.38906 0.20524,0 1.77425,0.90996 3.48669,2.02214 3.25158,2.11178997 5.25721,3.39660997 6.48697,4.1555793 0.40018,0.24698 0.72761,0.541646 0.72761,0.654816 0,0.11317 -0.50602,0.46327 -1.12448,0.77801 -1.28672,0.65481 -4.77481,2.55406 -8.31708,4.5286 -1.33655,0.74503 -2.55694,1.3546 -2.71198,1.3546 -0.15503,0 -0.28297,-0.26789 -0.2843,-0.59532 z m 5.78527,-2.87056 c 2.71303,-1.46967 5.09546,-2.82723 5.29429,-3.0168 0.30145,-0.2874 0.0377,-0.55344 -1.5875,-1.60101533 -1.07196,-0.691 -2.90152,-1.87526997 -4.06568,-2.63171997 -2.50481,-1.62757 -3.31012,-2.06995 -3.47254,-1.90753 -0.11558,0.11558 -0.91502,6.3646153 -1.28483,10.0432553 -0.0987,0.98226 -0.0979,1.78594 0.002,1.78594 0.0998,0 2.40126,-1.20246 5.11429,-2.67213 z m -35.98721,-8.3675053 c -0.0869,-0.19722 -1.90238,-1.43977 -3.00085,-2.05389 -1.71183,-0.95703 -3.30729,-2.11082 -3.30729,-2.39175 0,-0.47045 0.20992,-0.60744 5.15938,-3.3671204 2.47385,-1.37935 4.97416,-2.77772 5.55625,-3.10749 0.58208,-0.32976 2.36802,-1.33793 3.96875,-2.24037 1.60072,-0.90244 4.49111,-2.553589 6.4230897,-3.66923 1.93197,-1.11564 3.56908,-2.02843 3.63802,-2.02843 0.0689,0 0.12534,1.94081 0.12534,4.3129 v 4.31291 l -1.12448,0.57942 c -1.39507,0.71887 -4.0446997,2.20812 -7.7390597,4.3498404 -0.87312,0.50617 -2.77812,1.61041 -4.23333,2.45386 -4.48367,2.59877 -5.37211,3.06192 -5.46582,2.84935 z m 2.02624,-1.49176 c 3.39642,-1.87784 7.99281,-4.48829 9.12812,-5.1841704 0.65484,-0.40139 2.4676,-1.47422 4.0283497,-2.38406 2.59621,-1.51347 2.85265,-1.73378 3.013,-2.58853 0.16916,-0.90173 -0.067,-5.8799 -0.28956,-6.10241 -0.1024,-0.1024 -6.3848197,3.33456 -12.9694997,7.09529 -1.60073,0.91424 -3.4131,1.93784 -4.0275,2.27468 -1.68914,0.92606 -5.41637,3.0424504 -6.11873,3.4743404 l -0.62123,0.382 0.6131,0.43994 c 0.90449,0.64904 5.3702,3.44516 5.52415,3.45886 0.0728,0.006 0.84667,-0.3832 1.7198,-0.86594 z m 46.29859,0.66916 c -0.87121,-0.49542 -2.00073,-1.14446 -2.51005,-1.44232 -0.50933,-0.29785 -2.11667,-1.21955 -3.57188,-2.04823 -1.45521,-0.82867 -3.95552,-2.25915 -5.55625,-3.1788304 -1.60073,-0.91968 -3.41634,-1.91856 -4.03469,-2.21974 l -1.12427,-0.5476 -2.1e-4,-4.32779 c -1.9e-4,-4.01246 0.0335,-4.31495 0.46282,-4.15165 0.25466,0.0969 2.18942,1.16501 4.29948,2.37362 4.39071,2.51497 9.91168,5.63965 15.97438,9.04095 2.31023,1.2961004 4.26624,2.5275304 4.34668,2.7365204 0.0804,0.20899 -0.0696,0.50665 -0.33351,0.66146 -0.26388,0.15481 -1.80474,1.11912 -3.42414,2.14292 l -2.94435,1.86146 z m 2.7345,-0.49712 c 2.23489,-1.29588 4.80965,-3.00853 4.80739,-3.19773 -10e-4,-0.10209 -0.56677,-0.49464 -1.25677,-0.87233 -0.69,-0.37769 -3.07025,-1.7171404 -5.28944,-2.9765604 -5.84282,-3.31588 -11.90265,-6.73312 -13.42761,-7.57206 -0.7276,-0.40028 -1.73963,-0.98244 -2.24896,-1.29368 -1.57239,-0.96086 -1.5875,-0.93269 -1.5875,2.9602 v 3.52806 l 3.24115,1.85576 c 1.78263,1.02067 5.38427,3.0804504 8.00364,4.5772904 2.61938,1.49684 5.11969,2.93379 5.55625,3.19322 0.43657,0.25942 0.83208,0.48155 0.87893,0.4936 0.0469,0.0121 0.64216,-0.30104 1.32292,-0.69577 z"
       style="fill:#000000;stroke-width:0.264583" />
  </g>
</svg>
