<?xml version="1.0" encoding="UTF-8" standalone="no"?>
<svg
   xmlns:dc="http://purl.org/dc/elements/1.1/"
   xmlns:cc="http://creativecommons.org/ns#"
   xmlns:rdf="http://www.w3.org/1999/02/22-rdf-syntax-ns#"
   xmlns:svg="http://www.w3.org/2000/svg"
   xmlns="http://www.w3.org/2000/svg"
   xmlns:sodipodi="http://sodipodi.sourceforge.net/DTD/sodipodi-0.dtd"
   xmlns:inkscape="http://www.inkscape.org/namespaces/inkscape"
   inkscape:version="1.0 (4035a4fb49, 2020-05-01)"
   sodipodi:docname="am-snow.svg"
   id="svg8"
   version="1.1"
   viewBox="0 0 210 297"
   height="297mm"
   width="210mm">
  <defs
     id="defs2" />
  <sodipodi:namedview
     inkscape:window-maximized="1"
     inkscape:window-y="27"
     inkscape:window-x="0"
     inkscape:window-height="983"
     inkscape:window-width="1920"
     showgrid="false"
     inkscape:document-rotation="0"
     inkscape:current-layer="layer1"
     inkscape:document-units="mm"
     inkscape:cy="331.42857"
     inkscape:cx="400"
     inkscape:zoom="0.7"
     inkscape:pageshadow="2"
     inkscape:pageopacity="0.0"
     borderopacity="1.0"
     bordercolor="#666666"
     pagecolor="#ffffff"
     id="base" />
  <metadata
     id="metadata5">
    <rdf:RDF>
      <cc:Work
         rdf:about="">
        <dc:format>image/svg+xml</dc:format>
        <dc:type
           rdf:resource="http://purl.org/dc/dcmitype/StillImage" />
        <dc:title></dc:title>
      </cc:Work>
    </rdf:RDF>
  </metadata>
  <g
     id="layer1"
     inkscape:groupmode="layer"
     inkscape:label="Layer 1">
    <path
       id="path890"
       d="m -2.2184495,186.73922 c -0.48517,-0.61847 -1.77509,-2.20689 -2.8665,-3.52984 -1.09141,-1.32297 -2.71581,-3.29758 -3.60979,-4.38808 l -1.6254205,-1.98271 0.3768805,-5.00463 c 0.20728,-2.75255 0.34341,-5.54042 0.3025,-6.19526 -0.0732,-1.17238 -0.12216,-1.09475 -3.1919105,5.06472 l -3.117532,6.25534 -1.115801,0.38333 c -1.354921,0.46546 -7.578889,2.98744 -9.070689,3.67546 -0.591648,0.27289 -1.208704,0.49615 -1.371235,0.49615 -0.325835,0 -0.702744,-0.93576 -0.505473,-1.25495 0.06844,-0.11073 0.209706,-2.64186 0.31393,-5.62475 l 0.189495,-5.42343 1.534946,-1.5875 c 7.997832,-8.27166 16.2513795,-17.33526 16.4500995,-18.06461 0.10461,-0.38395 0.27173,-2.52546 0.37137,-4.75891 l 0.18116,-4.06081 -1.6645905,1.13904 c -0.91552,0.62647 -2.570917,1.76765 -3.678659,2.53594 -1.107739,0.7683 -2.490322,1.70883 -3.072405,2.09008 -0.582083,0.38124 -1.117865,0.76467 -1.190625,0.85205 -0.07276,0.0874 -1.02526,0.7542 -2.116667,1.4818 -1.091406,0.72761 -2.047457,1.4066 -2.124559,1.50887 -0.0771,0.10226 -0.970071,0.72281 -1.984375,1.37897 -1.014304,0.65618 -1.963253,1.29047 -2.108774,1.40954 -0.145521,0.11908 -0.694391,0.54174 -1.219711,0.93926 l -0.955127,0.72276 -2.616747,-0.26541 c -1.439212,-0.14598 -3.974699,-0.38418 -5.634429,-0.52933 -1.65972,-0.14515 -3.06458,-0.31081 -3.1219,-0.36813 -0.0573,-0.0573 1.09227,-2.24728 2.55466,-4.86658 1.46238,-2.61929 2.65888,-4.9032 2.65888,-5.07534 0,-0.17215 0.92273,-0.72643 2.05052,-1.23175 1.127786,-0.50532 2.229115,-1.03574 2.447396,-1.17873 0.218281,-0.14298 0.813594,-0.44055 1.322916,-0.66126 1.260708,-0.54631 1.910903,-0.86143 2.38125,-1.1541 0.766639,-0.47704 7.543147,-3.73103 7.764365,-3.72835 0.123058,0.002 0.564274,-0.23977 0.980485,-0.53614 0.416211,-0.29637 1.148966,-0.67177 1.628344,-0.83422 0.47938,-0.16245 1.191154,-0.51779 1.581721,-0.78963 0.390567,-0.27185 1.218094,-0.67349 1.838947,-0.89254 0.620855,-0.21905 1.313334,-0.55413 1.538834,-0.74461 0.22551,-0.19048 0.82673,-0.50461 1.33605,-0.69807 1.5247105,-0.57912 1.8873105,-1.02882 1.7985905,-2.23066 -0.0741,-1.00345 -0.18185,-1.12994 -1.7985905,-2.11084 -2.053501,-1.24589 -4.022398,-2.39203 -7.408329,-4.31255 -1.382448,-0.78413 -2.692135,-1.53379 -2.910417,-1.66589 -1.551794,-0.93919 -9.884015,-5.72272 -14.287502,-8.20247 -3.19573,-1.79963 -4.36276,-2.4675 -5.15937,-2.95264 -1.03893,-0.6327 -1.26228,-0.61354 -2.21739,0.19013 -0.76816,0.64637 -0.79734,0.74622 -0.67638,2.31511 0.29392,3.81253 0.64997,7.78258 1.14365,12.75211 0.28913,2.91041 0.73041,7.51333 0.98063,10.2287 l 0.45494,4.93704 -0.79166,1.01608 c -0.43541,0.55885 -1.95677,2.7425 -3.3808,4.85255 -1.42403,2.11005 -2.74567,3.87351 -2.93697,3.91879 -0.36918,0.0874 -0.41146,0.0287 -2.34656,-3.25733 -0.68557,-1.16417 -1.70998,-2.83104 -2.27647,-3.70417 -0.56649,-0.87312 -1.13684,-1.82562 -1.26743,-2.11666 -0.14983,-0.3339 -0.0585,-2.18897 0.2476,-5.02709 0.26679,-2.47385 0.72359,-7.47448 1.01513,-11.1125 0.29153,-3.63802 0.58487,-7.00153 0.65186,-7.47448 0.13098,-0.92482 -0.11028,-1.09972 -0.63869,-0.46302 -0.18116,0.21828 -0.42373,0.39688 -0.53905,0.39688 -0.11532,0 -1.08301,0.53305 -2.15042,1.18456 -1.0674,0.65151 -2.59641,1.53159 -3.39778,1.95572 l -1.45704,0.77115 -0.86393,3.00522 c -0.47517,1.65287 -1.15531,4.01725 -1.51143,5.25418 -1.00128,3.47775 -2.1166,7.49661 -3.04724,10.98021 -0.4665,1.74625 -1.01734,3.80008 -1.22409,4.56406 -0.27662,1.02223 -0.5017,1.38906 -0.8523,1.38906 -0.26203,0 -1.00284,0.33707 -1.64626,0.74905 -4.44373,2.84531 -5.81383,3.73062 -7.11042,4.59452 -1.14946,0.76587 -1.53804,0.9087 -1.79185,0.65864 -0.18386,-0.18114 -0.44185,-1.69196 -0.5962,-3.49149 -0.14966,-1.74469 -0.41195,-4.31449 -0.58288,-5.71066 l -0.31076,-2.5385 3.74344,-5.64933 c 2.0589,-3.10714 3.70144,-5.69136 3.65009,-5.74271 -0.0513,-0.0513 -0.55386,0.17285 -1.11669,0.49822 -0.56282,0.32537 -1.61863,0.92324 -2.34623,1.3286 -5.0519,2.81448 -6.20434,3.4918 -6.70776,3.94234 -0.28092,0.25141 -0.82079,0.22695 -2.51354,-0.11392 -1.18568,-0.23876 -2.87016,-0.54612 -3.74329,-0.68303 -3.4552,-0.54179 -7.39418,-1.34779 -7.60191,-1.55552 -0.19285,-0.19284 0.51696,-2.31537 2.84628,-8.51121 0.35561,-0.94588 0.8293,-2.33721 1.05265,-3.09183 0.37138,-1.25479 0.52436,-1.43062 1.78995,-2.05738 0.76113,-0.37694 2.12147,-1.12874 3.02298,-1.67067 0.90151,-0.54193 2.50886,-1.48461 3.57188,-2.09485 1.06301,-0.61024 2.17088,-1.29985 2.46192,-1.53246 0.49725,-0.39742 0.4414,-0.41475 -0.92604,-0.28731 -0.80036,0.0746 -3.41974,0.26021 -5.82083,0.41248 -2.4011,0.15227 -4.84188,0.33702 -5.42396,0.41057 -0.91894,0.1161 -1.23373,0.002 -2.39006,-0.8644 -0.73245,-0.54896 -2.56918,-1.89107 -4.08163,-2.98248 -3.661572,-2.64224 -4.441092,-3.33847 -4.111642,-3.67232 0.22737,-0.23042 4.869042,-2.67292 8.912152,-4.6897 0.68159,-0.33998 1.3544,-0.82392 1.49515,-1.07543 0.23888,-0.42686 0.42923,-0.41028 2.8618,0.24926 2.85549,0.7742 7.78842,2.06553 10.27881,2.69075 0.87313,0.2192 4.00359,1.00658 6.95659,1.74973 l 5.36909,1.35118 2.56841,-1.44916 c 1.41263,-0.79704 3.04466,-1.71411 3.62675,-2.03793 2.20488,-1.22659 2.19554,-1.20281 0.75807,-1.92867 -0.70798,-0.3575 -2.65646,-1.27362 -4.32995,-2.035812 -1.67349,-0.7622 -4.29286,-1.97533 -5.82083,-2.69585 -4.61707,-2.17718 -5.33793,-2.5101 -7.57393,-3.49791 -1.18248,-0.5224 -2.27798,-0.94981 -2.43445,-0.94981 -0.27509,0 -0.9355,-1.10829 -3.15323,-5.29166 -1.43887,-2.71419 -2.18931,-4.03795 -2.51871,-4.44299 -0.47806,-0.58782 0.10243,-0.78719 2.84803,-0.97815 1.4552,-0.10121 4.13411,-0.3395 5.95312,-0.52952 l 3.30729,-0.3455 1.32292,0.88695 c 1.07566,0.72118 9.13502,6.45404 12.43542,8.84568 1.20539,0.8735 4.34845,3.08138 7.59361,5.33424 l 2.91527,2.02384 1.22785,-0.51023 1.22785,-0.51024 -0.0696,-18.87132 -0.0696,-18.87134 -1.04663,-0.47196 -1.04663,-0.47196 -1.79419,1.13788 c -0.98681,0.62583 -1.99322,1.26732 -2.23647,1.42552 -0.76318,0.49635 -14.23412,9.57694 -17.28481,11.65148 l -2.91042,1.97914 -5.73907,0.009 c -3.56593,0.006 -5.80124,-0.0913 -5.90325,-0.25639 -0.0903,-0.14609 0.60561,-1.9618 1.54644,-4.03489 0.94082,-2.0731 1.95476,-4.3377 2.25317,-5.03246 0.51011,-1.18757 0.68189,-1.32874 2.86973,-2.35839 3.6389,-1.71254 7.7329,-3.63637 9.4709,-4.45051 0.87312,-0.40901 3.35497,-1.58784 5.51522,-2.61963 2.16025,-1.03179 4.01167,-1.87599 4.11427,-1.87599 0.1026,0 0.32938,-0.14283 0.50394,-0.31739 0.24681,-0.24681 -0.60201,-0.76828 -3.81663,-2.34472 -3.75071,-1.83934 -4.22297,-2.00686 -5.09313,-1.80668 -0.5275,0.12136 -2.56643,0.58698 -4.53097,1.03471 -5.58641,1.2732 -10.17212,2.33953 -13.62604,3.16851 -1.74625,0.41911 -3.92396,0.9359 -4.83936,1.14841 l -1.66436,0.38639 -1.64293,-0.86387 c -0.90361,-0.47512 -3.19074,-1.66013 -5.082512,-2.63336 -3.20955,-1.65115 -4.36622,-2.39138 -4.0853,-2.61442 0.0641,-0.0509 1.48577,-1.12426 3.15926,-2.38526 1.673482,-1.261 3.935672,-3.00214 5.027082,-3.8692 1.0914,-0.86705 2.12127,-1.53124 2.28859,-1.47597 0.16732,0.0553 2.48904,0.22867 5.15937,0.38535 2.67034,0.15667 5.62907,0.33875 6.57495,0.40461 1.5838,0.11028 1.67795,0.0878 1.19063,-0.28376 -0.29104,-0.22194 -2.80724,-1.53827 -5.59155,-2.92519 -4.95646,-2.46892 -5.65341,-2.97891 -5.65318,-4.13675 4e-5,-0.17505 -0.60885,-1.866093 -1.35309,-3.757862 -0.74424,-1.891771 -1.69677,-4.311783 -2.11673,-5.377805 -0.41997,-1.066022 -0.76358,-2.099376 -0.76358,-2.296345 0,-0.402555 1.54682,-0.766463 5.0313,-1.183682 1.23925,-0.148381 3.71068,-0.548331 5.49206,-0.888775 2.44186,-0.46667 3.35932,-0.548116 3.72827,-0.330983 0.48412,0.284914 1.31545,0.828529 4.4015,2.878208 4.8549,3.224499 5.96409,3.877781 5.67875,3.344635 -0.1612,-0.301201 -1.89181,-2.938338 -3.84581,-5.860303 -1.954,-2.921966 -3.55273,-5.537658 -3.55273,-5.812653 0,-0.274994 0.22892,-1.953913 0.50871,-3.730934 0.27979,-1.777021 0.63141,-4.350523 0.78139,-5.718897 0.14997,-1.368372 0.36844,-2.58372 0.4855,-2.700772 0.11704,-0.117049 0.65889,0.05003 1.20409,0.371285 1.93615,1.140862 8.53645,5.318217 8.95665,5.668692 0.23483,0.195869 0.6907,1.275088 1.01306,2.398268 0.32235,1.12318 0.86321,2.935113 1.2019,4.026519 0.3387,1.091406 1.05483,3.472656 1.59141,5.291667 1.01579,3.443584 1.76554,5.89484 3.03471,9.921875 0.41276,1.309689 0.81863,2.678912 0.90192,3.042712 0.11224,0.49023 1.15376,1.33309 4.02354,3.25608 2.12966,1.42705 3.89518,2.55814 3.92338,2.51354 0.093,-0.14702 -0.38298,-6.577543 -1.03413,-13.971707 -0.98781,-11.217071 -0.96903,-10.490041 -0.29254,-11.319529 0.32252,-0.395456 1.75565,-2.385888 3.18476,-4.423179 1.4291,-2.037292 2.65463,-3.763698 2.7234,-3.836459 0.17975,-0.190182 0.64583,0.501039 2.94366,4.365625 1.12482,1.891771 2.31212,3.856302 2.63843,4.365625 0.56388,0.880118 0.58522,1.103178 0.43032,4.497917 -0.0896,1.964531 -0.51054,8.236328 -0.93533,13.937324 -0.42478,5.701003 -0.77233,10.727103 -0.77233,11.169113 0,0.62989 0.21079,0.94689 0.9749,1.46612 l 0.9749,0.66246 1.47249,-0.83005 c 0.80988,-0.45652 2.425,-1.3882 3.58917,-2.07038 2.08113,-1.21952 11.812974,-6.83969 13.626036,-7.86909 2.638756,-1.49819 4.274,-2.453073 5.91402,-3.453413 0.99714,-0.608209 1.856147,-1.105834 1.90891,-1.105834 0.05276,0 1.285328,-0.714375 2.739032,-1.5875 1.45371,-0.873125 2.8271205,-1.5875 3.0520305,-1.5875 0.44274,0 0.49191,-0.388861 0.24103,-1.906347 -0.17633,-1.06657 -0.066,-0.996275 -5.5206475,-3.517982 -1.164166,-0.538199 -2.831041,-1.313624 -3.704166,-1.723165 -0.873125,-0.409543 -2.420938,-1.120981 -3.439584,-1.580975 -1.018646,-0.459994 -2.328333,-1.057564 -2.910416,-1.327931 -0.582084,-0.270367 -1.83224,-0.839523 -2.778125,-1.264788 -0.945886,-0.425267 -3.246787,-1.465527 -5.113115,-2.311691 l -3.393325,-1.538248 -1.27003,-2.666925 c -0.69852,-1.466811 -1.88445,-3.951338 -2.6354,-5.521174 -0.75095,-1.569834 -1.30635,-2.949737 -1.23422,-3.066447 0.20033,-0.324139 11.228461,-0.609209 11.607749,-0.300054 1.065358,0.868371 2.513454,1.917293 7.726878,5.596919 3.201459,2.259587 7.160287,5.027838 8.797396,6.151671 l 2.9765655,2.04333 V 10.317411 5.513501 L -10.04591,4.805892 c -0.40018,-0.389184 -4.449749,-4.52703098 -8.999037,-9.195215 l -8.271438,-8.487609 -0.15108,-6.389063 c -0.146714,-6.204428 -0.136207,-6.38906 0.363583,-6.38906 0.449625,0 2.027253,0.675521 9.155996,3.920487 l 1.556877,0.708682 3.022528,6.07923 c 1.662391,3.343574 3.080991,6.13769 3.152441,6.209144 0.0715,0.07145 0.11192,-2.698666 0.0899,-6.155822 l -0.04,-6.285738 3.9744105,-4.685387 c 2.18593,-2.576963 4.20358,-4.973095 4.48368,-5.324737 l 0.50925,-0.63935 0.67045995,0.771641 c 0.36874,0.424403 2.40918005,2.822856 4.53430005,5.329897 l 3.86385,4.558252 0.071,6.126993 0.071,6.126993 3.0112595,-6.06975 3.01126,-6.069751 2.01582,-0.888071 c 1.1087,-0.488437 3.44061,-1.523614 5.18201,-2.300391 4.30573,-1.920634 4.22387,-1.936049 3.98945,0.75129 -0.10381,1.189987 -0.22894,4.121658 -0.27808,6.514822 l -0.0894,4.351208 -5.29446,5.325284 c -2.91196,2.928906 -6.90632,6.99215702 -8.87637,9.029449 l -3.5818995,3.704166 -0.008,4.696354 c -0.004,2.582995 0.0541,4.696354 0.12971,4.696354 0.13098,0 1.34197,-0.777819 2.77287,-1.781021 C 21.15307,5.222944 26.06066,1.726412 26.29967,1.429203 c 0.24506,-0.304739 1.28944,-0.337714 6.02978,-0.190384 3.15337,0.098 5.79173,0.27259 5.86304,0.387964 0.0713,0.115374 -0.80398,2.090642 -1.94509,4.389488 -1.1411,2.298842 -2.23548,4.596434 -2.43194,5.105757 -0.5528,1.433115 -1.24283,2.031039 -3.36205,2.913271 -2.90617,1.209844 -23.1401595,10.548228 -23.8308695,10.998414 -0.48564,0.316535 -0.59531,0.630598 -0.59531,1.70483 0,1.002363 0.0961,1.316818 0.40254,1.316818 0.22141,0 0.84648,0.280601 1.38907,0.623559 0.93476,0.590849 6.9152095,4.108575 10.6437995,6.260748 0.94589,0.54597 3.20808,1.85728 5.02709,2.91402 1.81901,1.05674 4.55744,2.63621 6.08541,3.50993 1.52797,0.87373 3.13532,1.79411 3.57188,2.04531 0.43656,0.25119 1.50812,0.86521 2.38125,1.36447 0.87312,0.49927 1.89569,1.11024 2.27237,1.35771 0.65713,0.43173 0.72142,0.42512 1.5875,-0.16316 l 0.90264,-0.61311 -0.0799,-3.82109 c -0.044,-2.1016 -0.31645,-6.79766 -0.60549,-10.435679 -0.28905,-3.638021 -0.62648,-8.579114 -0.74985,-10.980208 -0.21686,-4.220935 -0.20556,-4.3917 0.34091,-5.152334 0.6427,-0.894562 3.15644,-5.071952 4.42739,-7.357518 0.46783,-0.841303 0.98085,-1.486331 1.14004,-1.433396 0.1592,0.05294 0.90979,0.979398 1.66798,2.05881 2.76946,3.942766 3.39847,4.81923 4.13581,5.762871 0.75121,0.961377 0.7517,0.964661 0.58223,3.872609 -0.0933,1.600729 -0.52837,6.745634 -0.96685,11.433119 -0.43848,4.687486 -0.76002,8.943366 -0.71452,9.457496 l 0.0827,0.93479 3.80076,-2.57833 3.800761,-2.57832 0.77295,-2.513543 c 0.42513,-1.382452 1.05309,-3.406515 1.39548,-4.497921 0.34239,-1.091406 1.06774,-3.472656 1.61189,-5.291667 1.03208,-3.450074 1.61498,-5.380839 3.04705,-10.092853 l 0.85609,-2.816813 3.92958,-2.474854 c 2.16127,-1.36117 4.45873,-2.814357 5.10548,-3.229303 0.64675,-0.414946 1.30315,-0.675812 1.45866,-0.579697 0.15552,0.09611 0.28276,0.658498 0.28276,1.249746 0,0.591249 0.37215,3.447881 0.826999,6.348077 l 0.82701,5.273079 -0.53335,0.581621 c -0.424429,0.462835 -6.177849,8.994428 -7.056399,10.463749 -0.17681,0.295693 -0.10564,0.29994 0.4137,0.02469 0.78214,-0.414544 4.92112,-3.07222 7.853909,-5.043072 l 2.2117,-1.486265 1.8954,0.36599 c 1.04247,0.201295 3.08603,0.549976 4.54123,0.774848 7.80455,1.206026 7.55709,1.141481 7.36973,1.922108 -0.0928,0.386834 -0.37388,1.120055 -0.6246,1.629378 -0.25069,0.509323 -0.60735,1.402292 -0.79253,1.984375 -0.18521,0.582083 -0.54234,1.534583 -0.79359,2.116667 -0.25128,0.582083 -0.92898,2.36802 -1.50601,3.968747 l -1.04915,2.910423 -5.45055,2.77812 c -2.99781,1.52797 -5.53355,2.86269 -5.63499,2.96605 -0.10144,0.10336 0.87247,0.12817 2.16425,0.0551 5.60456,-0.31689 10.58332,-0.67714 10.98533,-0.79485 0.36541,-0.10701 2.35429,1.25357 4.18182,2.86077 0.21066,0.18527 1.69894,1.32609 3.30729,2.53516 1.60835,1.20906 2.92425,2.37566 2.92425,2.59243 0,0.24315 -1.77379,1.30891 -4.6302,2.78202 -2.54662,1.31333 -4.87733,2.54689 -5.17938,2.74124 -0.55671,0.35822 -1.69381,0.1577 -8.84354,-1.55953 -5.48331,-1.31699 -8.740989,-2.0768 -12.038539,-2.80782 -2.03729,-0.45164 -4.07636,-0.91692 -4.53127,-1.03397 -0.69014,-0.17757 -1.25969,-0.008 -3.43958,1.0222 -4.48516,2.12028 -6.07683,3.00261 -5.65519,3.13493 0.21828,0.0685 2.65906,1.19513 5.42395,2.50363 2.7649,1.3085 6.15818,2.90745 7.54063,3.55324 1.38245,0.64578 2.98979,1.39972 3.57187,1.67543 0.58209,0.2757 2.0827,0.97635 3.334699,1.55699 1.9195,0.89021 2.32946,1.19303 2.61506,1.93164 0.18628,0.48177 0.72694,1.70937 1.20146,2.72802 0.47452,1.01864 1.35277,2.90331 1.95167,4.18815 0.59889,1.28483 1.03945,2.41607 0.97901,2.51385 -0.0604,0.0978 -2.7703,0.21105 -6.02193,0.25169 -5.613399,0.0702 -5.945459,0.0467 -6.573509,-0.4649 -0.3638,-0.29635 -1.61396,-1.15193 -2.77812,-1.90129 -1.16417,-0.74937 -2.29526,-1.52451 -2.51354,-1.72254 -0.35947,-0.32612 -12.914241,-8.74196 -14.931031,-10.00871 -3.36226,-2.11186 -3.17998,-2.04508 -4.22358,-1.54742 -0.94768,0.45192 -0.95388,0.46581 -0.97749,2.19173 -0.0131,0.95532 -0.0428,9.44703 -0.0661,18.87047 l -0.0424,17.13354 1.12927,0.53101 1.12926,0.531 2.41288,-1.65725 c 1.32708,-0.91149 2.73838,-1.89537 3.13623,-2.18642 0.39784,-0.29104 1.48279,-1.05365 2.41098,-1.6947 0.928201,-0.64105 2.521071,-1.78192 3.539711,-2.53527 1.01865,-0.75335 2.7013,-1.95526 3.73922,-2.67092 1.03793,-0.71565 3.51657,-2.47293 5.50809,-3.90505 2.92846,-2.10587 3.74371,-2.57304 4.26285,-2.44275 0.67204,0.16867 9.234939,0.93639 10.509079,0.94221 1.08065,0.005 1.10916,0.52496 0.11896,2.16935 -0.48646,0.80785 -1.70097,3.03224 -2.69891,4.94308 -1.04395,1.99895 -1.97565,3.47425 -2.1941,3.47425 -0.20882,0 -3.969569,1.65157 -8.357219,3.67014 -11.43019,5.258542 -12.86558,5.958192 -12.78333,6.230942 0.0726,0.24073 6.33273,3.88787 7.55156,4.39952 0.70158,0.29451 5.68157,-0.88583 21.331299,-5.05585 4.22447,-1.12566 4.36563,-1.15193 4.36563,-0.81273 0,0.16039 0.68461,0.65144 1.52135,1.09124 0.83675,0.43979 1.69995,0.91789 1.91823,1.06245 0.21828,0.14457 0.93266,0.49799 1.5875,0.78538 2.33683,1.02559 5.42531,2.8505 5.50484,3.25267 0.051,0.25778 -0.62058,0.88277 -1.81594,1.69004 -1.04328,0.70455 -2.09169,1.46562 -2.32984,1.69126 -0.23815,0.22565 -0.73067,0.60962 -1.09447,0.85326 -0.36381,0.24365 -1.49183,1.04459 -2.50669,1.77987 -1.65767,1.20096 -1.95355,1.32339 -2.91042,1.20435 -1.04312,-0.12977 -2.62678,-0.24572 -7.41519,-0.54291 -1.30968,-0.0813 -3.03609,-0.21569 -3.83645,-0.29868 l -1.45521,-0.15089 0.70319,0.55518 c 0.38675,0.30535 0.76951,0.55518 0.85057,0.55518 0.0811,0 1.33679,0.71438 2.79049,1.5875 1.45372,0.87313 2.71601,1.5875 2.8051,1.5875 0.0891,0 0.54101,0.28331 1.00424,0.62958 0.46323,0.34628 1.28064,0.78399 1.81647,0.9727 1.05986,0.37328 0.77527,-0.26986 4.32551,9.7748 0.33432,0.94589 0.79563,2.15991 1.02512,2.69783 0.2295,0.53792 0.32695,1.03386 0.21657,1.10209 -0.11041,0.0682 -1.92506,0.43851 -4.03254,0.82284 -2.1075,0.38433 -5.11818,0.9428 -6.69041,1.24105 -2.51525,0.47712 -2.91251,0.49587 -3.3073,0.15608 -0.24677,-0.2124 -0.80587,-0.56484 -1.24243,-0.78322 -0.43656,-0.21837 -1.50812,-0.81385 -2.381249,-1.32329 -7.40614,-4.32124 -7.14405,-4.25521 -5.18537,-1.30657 0.52362,0.78826 1.57147,2.38383 2.32856,3.5457 0.75709,1.16187 1.53931,2.30669 1.73827,2.54405 0.19896,0.23736 0.74831,1.04964 1.22076,1.80507 l 0.859009,1.3735 -0.56036,4.57962 c -0.308209,2.5188 -0.617249,5.05588 -0.686779,5.63796 -0.22046,1.84585 -0.39662,1.90561 -2.13022,0.72271 -0.85394,-0.58268 -2.38606,-1.5932 -3.4047,-2.24559 -1.01865,-0.6524 -2.38787,-1.52915 -3.04271,-1.94832 -0.65484,-0.41917 -1.54781,-0.89083 -1.98438,-1.04812 -0.73855,-0.2661 -0.85164,-0.4961 -1.62632,-3.30729 -0.45791,-1.66172 -1.33276,-4.80724 -1.94411,-6.99005 -0.61135,-2.18282 -1.26371,-4.56407 -1.4497,-5.29167 -0.62344,-2.43909 -2.56258,-8.97697 -2.78685,-9.39604 -0.12201,-0.22797 -0.55848,-0.58567 -0.96992,-0.79489 -0.411461,-0.20922 -1.224351,-0.6777 -1.806431,-1.04108 -0.58208,-0.36337 -1.29646,-0.79601 -1.5875,-0.96141 -0.29104,-0.16541 -1.28575,-0.73457 -2.21046,-1.26482 l -1.6813,-0.96408 0.17148,2.18408 c 0.31343,3.99198 0.96156,11.43304 1.06598,12.23824 0.10518,0.81103 0.55898,5.71588 0.7711,8.33437 0.10768,1.32913 0.0241,1.61568 -0.96518,3.3073 -0.59569,1.01864 -1.28467,2.0902 -1.53107,2.38125 -0.24639,0.29104 -0.49291,0.65099 -0.54781,0.79989 -0.38116,1.03375 -2.51998,4.35948 -2.80364,4.35948 -0.19226,0 -0.88325,-0.80367 -1.53554,-1.78594 -1.2863,-1.93701 -3.44321,-5.07674 -4.84163,-7.04776 -0.66129,-0.93205 -0.84204,-1.41667 -0.73,-1.95723 0.0819,-0.39514 0.33422,-2.98063 0.56072,-5.74553 0.2265,-2.76489 0.58152,-6.51536 0.78895,-8.33437 0.38273,-3.35641 1.18528,-12.91448 1.18528,-14.11635 0,-0.91166 -1.68914,-1.98771 -2.41179,-1.5364 -0.2706,0.16899 -1.41622,0.82581 -2.54583,1.45959 -2.72468,1.52873 -8.42211,4.78062 -13.96009,7.96792 -2.47386,1.42379 -4.91464,2.82409 -5.42396,3.11177 -0.88249,0.49847 -5.70156,3.30891 -8.6650995,5.05342 -1.36391,0.80288 -1.38907,0.84029 -1.38907,2.06613 v 1.24844 l 5.7546895,2.81482 c 3.16508,1.54816 5.99281,2.94688 6.28386,3.10827 0.91032,0.5048 1.71119,0.89936 6.87916,3.3891 2.7649,1.33203 5.53976,2.67733 6.16636,2.98956 1.05654,0.52646 1.33514,0.92264 3.83646,5.45552 1.48345,2.68831 2.73291,5.02542 2.77658,5.19359 0.10008,0.38543 -0.94033,0.56535 -4.44502,0.7687 -1.52797,0.0887 -3.63283,0.28011 -4.67747,0.42546 -2.06242,0.28697 -1.98346,0.31498 -4.74562,-1.68348 -0.45326,-0.32795 -1.4653,-1.03709 -2.24895,-1.57587 -0.78366,-0.53877 -1.90109,-1.3379 -2.48317,-1.77583 -0.58208,-0.43792 -1.41552,-0.9966 -1.85208,-1.2415 -0.43657,-0.2449 -1.62719,-1.05911 -2.64584,-1.80935 -1.01864,-0.75024 -2.56646,-1.83045 -3.43958,-2.40047 -0.87313,-0.57001 -1.7065595,-1.15933 -1.8520795,-1.30961 -0.14553,-0.15027 -0.90709,-0.66609 -1.69238,-1.14627 l -1.42779,-0.87304 0.17685,2.72513 c 0.0973,1.49882 0.25165,3.60448 0.34306,4.67926 l 0.16621,1.95413 3.8417895,4.13128 c 4.43344,4.76752 10.02716,10.73511 12.41417,13.24389 1.49532,1.57162 1.6545,1.84762 1.68741,2.92594 0.02,0.65484 0.0659,1.48828 0.10214,1.85208 0.0362,0.3638 0.15066,2.59622 0.25436,4.96094 0.13947,3.18047 0.1091,4.29948 -0.11668,4.29948 -0.31354,0 -1.94201,-0.62603 -4.50435,-1.73162 -0.80037,-0.34534 -2.70537,-1.12213 -4.23334,-1.7262 -1.52797,-0.60407 -2.92695,-1.1575 -3.10885,-1.22981 -0.1819,-0.0723 -0.33073,-0.26588 -0.33073,-0.4301 0,-0.37516 -5.8272395,-12.16197 -5.9513495,-12.03787 -0.0501,0.0501 0.0751,2.59117 0.27828,5.6468 0.45583,6.85578 0.4561,6.89415 0.0506,7.32272 -0.18194,0.1923 -1.3338,1.59977 -2.55969,3.12774 -5.27761005,6.57815 -5.97201005,7.40834 -6.19649,7.40834 -0.0709,0 -0.52591,-0.50602 -1.01109,-1.12448 z m -6.21132,-70.24688 c 0.0902,-0.5457 0.16531,-2.12359 0.16691,-3.50642 l 0.003,-2.51423 -3.1088605,-1.8392 c -1.709866,-1.01156 -5.371038,-3.14384 -8.135933,-4.73841 -2.764896,-1.59456 -5.330346,-3.07663 -5.701001,-3.2935 -0.744818,-0.43579 -0.547532,-0.50259 -3.600934,1.21932 -0.850289,0.4795 -1.884873,1.14796 -2.299073,1.48547 l -0.753092,0.61364 5.912467,3.51344 c 3.251856,1.9324 6.448247,3.83541 7.103091,4.22892 0.654844,0.39351 2.678906,1.58467 4.497917,2.64703 1.81901,1.06236 3.783538,2.21046 4.3656285,2.55134 0.58208,0.34088 1.13205,0.62091 1.22215,0.62229 0.0901,0.001 0.23762,-0.44398 0.32782,-0.98969 z m 16.16065,0.32482 c 0.54088,-0.36705 1.53976,-0.96678 2.21973,-1.33274 0.6799795,-0.36595 1.6530295,-0.91927 2.1623595,-1.2296 1.19747,-0.72962 14.55758,-8.63314 16.21768,-9.594 0.6978,-0.40388 1.23358,-0.76828 1.19062,-0.80978 -0.19277,-0.18624 -2.92023,-1.97693 -3.01113,-1.97693 -0.0559,0 -0.70967,-0.37407 -1.4527,-0.83126 -1.50246,-0.92447 -1.39088,-0.94233 -4.08093,0.6531 -0.58208,0.34522 -2.36802,1.37755 -3.96875,2.29405 -1.60073,0.9165 -3.56526,2.04795 -4.36563,2.51434 -0.80036,0.46639 -2.52677,1.46962 -3.8364495,2.22939 -1.30969,0.75977 -2.51725,1.52147 -2.68347,1.69266 -0.4321,0.44503 -0.15006,7.05814 0.30101,7.05814 0.17833,0 0.76678,-0.30031 1.30766,-0.66737 z m -15.18089,-16.861272 c 0.0605,-1.23704 -0.0636,-11.44657 -0.14013,-11.52307 -0.11269,-0.1127 -1.17952,0.43661 -1.64934,0.84923 -0.41147,0.36137 -1.5984705,1.24155 -5.0057305,3.71183 -1.472886,1.06785 -2.746804,2.05292 -2.830934,2.18904 -0.130706,0.21149 8.8532445,5.076522 9.4115045,5.096572 0.10914,0.004 0.20572,-0.1417 0.21463,-0.323602 z m 15.78221,-1.15752 c 1.5701,-0.81853 3.6583995,-1.90828 4.6406595,-2.42166 0.98227,-0.51338 1.78594,-1.03011 1.78594,-1.14828 0,-0.11818 -0.24866,-0.34794 -0.55257,-0.51059 -0.30392,-0.16265 -0.98853,-0.67286 -1.52136,-1.13379 -0.53283,-0.46093 -1.16491,-0.95712 -1.40463,-1.10264 -0.77536,-0.47069 -4.8450695,-3.41147 -5.2054395,-3.76148 -0.4654,-0.452 -0.75037,-0.42819 -0.94498,0.0789 -0.27252,0.71016 -0.18478,11.487732 0.0935,11.487732 0.13977,0 1.53875,-0.669702 3.10886,-1.488242 z m -41.9229155,-10.21798 0.730692,-0.50504 -0.06923,-10.22912 -0.06923,-10.22911 -3.042705,-1.64925 c -1.67349,-0.90709 -3.10266,-1.6527 -3.17594,-1.65692 -0.17671,-0.0102 -0.0301,24.67299 0.15522,26.12458 l 0.14412,1.12911 2.29819,-1.23961 c 1.26401,-0.68178 2.62701,-1.46687 3.02889,-1.74464 z m 70.537915,-14.95982 0.0366,-9.33584 -3.175,1.64951 -3.175,1.64952 v 10.225 c 0,11.49261 -0.18346,10.48415 2.11667,11.63465 0.65484,0.32755 1.25015,0.66884 1.32291,0.75843 0.0728,0.0896 0.66808,0.41468 1.32292,0.72241 l 1.19062,0.5595 0.16184,-4.26367 c 0.089,-2.34502 0.17831,-8.4648 0.19844,-13.59951 z m -59.328184,8.77741 c 0.854329,-0.37989 2.029577,-0.9025 2.61166,-1.16135 4.622358,-2.05553 6.111825,-2.74115 6.282052,-2.89169 0.108151,-0.0956 -0.42763,-0.53829 -1.190625,-0.98367 -0.762992,-0.44538 -3.095191,-1.84778 -5.182663,-3.11644 -2.087473,-1.26865 -3.831871,-2.26833 -3.87644,-2.22149 -0.348631,0.36633 -0.790913,11.06536 -0.457427,11.06536 0.143063,0 0.959112,-0.31082 1.813443,-0.69072 z m 44.165494,-4.79939 c -0.10557,-3.01955 -0.24073,-5.53918 -0.30035,-5.59916 -0.15671,-0.15765 -10.42953,6.08545 -10.42953,6.33834 0,0.11658 0.44649,0.35857 0.99219,0.53773 0.5457,0.17918 1.40891,0.53357 1.91823,0.78754 0.50932,0.25397 1.93807,0.89624 3.175,1.42726 1.23693,0.53102 2.72521,1.19051 3.30729,1.46553 0.58209,0.27502 1.16426,0.50743 1.29373,0.51646 0.13617,0.009 0.15448,-2.29784 0.0434,-5.4737 z M -7.2002595,63.875638 c -0.49932,-5.59369 -0.86897,-8.56819 -1.06481,-8.56819 -0.10534,0 -1.42721,0.79658 -2.9374805,1.77017 -1.510265,0.97359 -3.595759,2.3181 -4.634423,2.9878 l -1.888479,1.21762 1.094729,0.63706 c 2.608813,1.51816 9.5551635,5.25574 9.6295635,5.18133 0.0449,-0.0449 -0.0447,-1.49646 -0.1991,-3.22579 z m 14.38389,1.92679 c 5.3696795,-2.86224 8.1307395,-4.48685 7.9277395,-4.66465 -0.12115,-0.10612 -1.5895,-1.06496 -3.26299,-2.13076 -1.67349,-1.0658 -3.6758795,-2.34596 -4.4497695,-2.84479 -0.77389,-0.49883 -1.451,-0.86304 -1.50469,-0.80934 -0.36596,0.36595 -1.38946,11.59622 -1.05685,11.59622 0.10744,0 1.1634,-0.516 2.34656,-1.14668 z M -23.076616,53.924308 c 1.924315,-1.08809 2.945617,-1.67111 4.630209,-2.64321 0.873125,-0.50384 3.521143,-2.02946 5.884486,-3.39027 4.0091515,-2.30846 4.3083115,-2.53459 4.4661015,-3.37569 0.15157,-0.80791 -0.0871,-5.88764 -0.28601,-6.08652 -0.0442,-0.0442 -0.54093,0.18372 -1.10376,0.50657 -0.5628205,0.32285 -2.5711305,1.44306 -4.4629015,2.48934 -1.891771,1.04629 -4.927864,2.74985 -6.746875,3.7857 -1.81901,1.03585 -5.057846,2.86828 -7.197412,4.07206 -2.139564,1.20379 -3.895736,2.2765 -3.902604,2.38382 -0.01289,0.20136 0.90012,0.81627 4.083978,2.75057 l 1.847501,1.12241 0.798332,-0.47078 c 0.439082,-0.25892 1.334112,-0.77373 1.988955,-1.144 z m 52.401606,-2.18874 c 0.0202,-0.14552 -0.3021,-0.4564 -0.71627,-0.69084 -0.41418,-0.23445 -2.18179,-1.2355 -3.92804,-2.22455 C 8.6275905,39.727868 6.2053905,38.396498 5.9753105,38.538688 c -0.36631,0.22639 -0.25692,6.61428 0.11839,6.91334 0.35999,0.28686 9.2744095,5.43583 14.3273595,8.27549 l 3.14872,1.76951 2.85922,-1.74844 c 1.57257,-0.96164 2.87577,-1.8675 2.89599,-2.01302 z"
       style="fill:#000000;stroke-width:0.264583" />
  </g>
</svg>
